<?xml version="1.0" standalone="no"?>
<!DOCTYPE svg PUBLIC "-//W3C//DTD SVG 1.1//EN" "http://www.w3.org/Graphics/SVG/1.1/DTD/svg11.dtd" >
<svg>
<metadata>
Created by FontForge 20090622 at Tue Nov  1 10:53:38 2016
 By deploy user
Copyright &#194;&#169; 2015 Monotype ITC Inc. All rights reserved.
</metadata>
<defs>
<font id="ITCAvantGardeStd-Md" horiz-adv-x="555" >
  <font-face 
    font-family="ITC Avant Garde Std Md"
    font-weight="500"
    font-stretch="normal"
    units-per-em="1000"
    panose-1="2 11 6 2 2 2 2 2 2 4"
    ascent="740"
    descent="-260"
    x-height="554"
    cap-height="740"
    bbox="-110 -257 1220 1004"
    underline-thickness="50"
    underline-position="-50"
    unicode-range="U+000D-U+FB04"
  />
<missing-glyph horiz-adv-x="500" 
d="M487 0h-475v665h475v-665zM250 375l161 243h-323zM221 333l-161 242v-484q45 64 161 242zM440 90v485l-162 -242zM411 48l-161 242l-162 -242h323z" />
    <glyph glyph-name="f_t" unicode="ft" horiz-adv-x="513" 
d="M419 0h-104v459h-141v-459h-104v459h-49v95h49v25q0 73 47 117t130 44h24v-95q-97 0 -97 -66v-25h141v186h104v-186h91v-95h-91v-459z" />
    <glyph glyph-name="f_f_t" unicode="fft" horiz-adv-x="758" 
d="M664 0h-104v459h-141v-459h-104v459h-141v-459h-104v459h-49v95h49v25q0 73 47 117t130 44h24v-95q-97 0 -97 -66v-25h141v25q0 73 47 117t130 44h24v-95q-97 0 -97 -66v-25h141v186h104v-186h91v-95h-91v-459z" />
    <glyph glyph-name="f_f" unicode="ff" horiz-adv-x="522" 
d="M419 0h-104v459h-141v-459h-104v459h-49v95h49v25q0 73 47 117t130 44h24v-95q-97 0 -97 -66v-25h141v25q0 73 47 117t130 44h24v-95q-97 0 -97 -66v-25h97v-95h-97v-459z" />
    <glyph glyph-name="fi" unicode="fi" horiz-adv-x="486" 
d="M419 0h-104v459h-141v-459h-104v459h-49v95h49v29q0 72 48.5 114.5t129.5 42.5h23v-95q-97 0 -97 -66v-25h245v-554zM419 618h-104v122h104v-122z" />
    <glyph glyph-name="fl" unicode="fl" horiz-adv-x="486" 
d="M419 0h-104v459h-141v-459h-104v459h-49v95h49v28q0 72 47.5 115t131.5 43h22v-95q-97 0 -97 -66v-25h141v186h104v-740z" />
    <glyph glyph-name="f_f_i" unicode="ffi" horiz-adv-x="731" 
d="M664 0h-104v459h-141v-459h-104v459h-141v-459h-104v459h-49v95h49v25q0 72 47 116.5t130 44.5h24v-95q-97 0 -97 -66v-25h141v25q0 72 47 116.5t130 44.5h24v-95q-97 0 -97 -66v-25h245v-554zM664 618h-104v122h104v-122z" />
    <glyph glyph-name="f_f_l" unicode="ffl" horiz-adv-x="731" 
d="M664 0h-104v459h-141v-459h-104v459h-141v-459h-104v459h-49v95h49v25q0 72 47 116.5t130 44.5h24v-95q-97 0 -97 -66v-25h141v25q0 72 47 116.5t130 44.5h24v-95q-97 0 -97 -66v-25h141v186h104v-740z" />
    <glyph glyph-name=".notdef" horiz-adv-x="500" 
d="M487 0h-475v665h475v-665zM250 375l161 243h-323zM221 333l-161 242v-484q45 64 161 242zM440 90v485l-162 -242zM411 48l-161 242l-162 -242h323z" />
    <glyph glyph-name=".null" horiz-adv-x="0" 
 />
    <glyph glyph-name="nonmarkingreturn" horiz-adv-x="333" 
 />
    <glyph glyph-name="NULL" horiz-adv-x="0" 
 />
    <glyph glyph-name="NULL" horiz-adv-x="0" 
 />
    <glyph glyph-name="CR" unicode="&#xd;" horiz-adv-x="295" 
 />
    <glyph glyph-name="space" unicode=" " horiz-adv-x="295" 
 />
    <glyph glyph-name="exclam" unicode="!" horiz-adv-x="277" 
d="M191 182h-104v558h104v-558zM191 0h-104v122h104v-122z" />
    <glyph glyph-name="quotedbl" unicode="&#x22;" horiz-adv-x="325" 
d="M110 444h-71l-19 296h110zM286 444h-71l-19 296h110z" />
    <glyph glyph-name="numbersign" unicode="#" 
d="M372 0h-88l28 204h-102l-29 -204h-88l28 204h-91l2 84h101l17 124h-90l2 84h100l28 204h89l-28 -204h102l28 204h89l-28 -204h82l-2 -84h-92l-17 -124h81l-2 -84h-91zM324 288l17 124h-102l-17 -124h102z" />
    <glyph glyph-name="dollar" unicode="$" 
d="M329 -82h-95v111q-156 41 -166 201h104q6 -54 35 -83t76 -29t73.5 31t26.5 82q0 42 -26.5 69t-88.5 43q-97 25 -134 70t-37 114q0 67 36.5 117t100.5 67v112h95v-112q66 -7 105.5 -53t42.5 -120h-104q-6 84 -88 84q-36 0 -60 -27t-24 -67q0 -37 23 -58.5t72 -33.5
q101 -23 146 -73.5t45 -130.5q0 -82 -42 -136.5t-116 -66.5v-111z" />
    <glyph glyph-name="percent" unicode="%" horiz-adv-x="837" 
d="M414 572q0 -73 -53 -126t-128 -53q-74 0 -127.5 53t-53.5 126t53.5 126t127.5 53q75 0 128 -53t53 -126zM236 0h-67l424 740h67zM233 479q38 0 64.5 27.5t26.5 65.5q0 39 -26.5 66t-65.5 27q-37 0 -63.5 -27.5t-26.5 -65.5t26.5 -65.5t64.5 -27.5zM784 166
q0 -73 -53 -126t-128 -53q-74 0 -127.5 53t-53.5 126t53.5 126t127.5 53q75 0 128 -53t53 -126zM603 73q38 0 64.5 27.5t26.5 65.5q0 39 -26.5 66t-65.5 27q-37 0 -63.5 -27.5t-26.5 -65.5t26.5 -65.5t64.5 -27.5z" />
    <glyph glyph-name="ampersand" unicode="&#x26;" horiz-adv-x="684" 
d="M276 460q52 26 72 50.5t20 58.5q0 36 -22 61t-55 25q-34 0 -56 -25.5t-22 -64.5q0 -48 63 -105zM403 191l-156 154q-49 -16 -77 -51.5t-28 -85.5q0 -53 33 -88t85 -35q88 0 143 106zM604 -14l-129 130q-86 -130 -215 -130q-94 0 -160 64t-66 157q0 69 37 125t105 86
q-40 40 -55.5 73.5t-15.5 73.5q0 79 53 134t134 55q78 0 131 -55t53 -133q0 -118 -124 -178l98 -96l81 163h117l-121 -244l149 -152z" />
    <glyph glyph-name="quotesingle" unicode="'" horiz-adv-x="218" 
d="M144 444h-70l-20 296h110z" />
    <glyph glyph-name="parenleft" unicode="(" horiz-adv-x="407" 
d="M357 -127v-130q-131 67 -216.5 206.5t-85.5 303.5q0 150 81 290t215 212v-129q-103 -91 -145.5 -175.5t-42.5 -196.5q0 -119 46 -209.5t148 -171.5z" />
    <glyph glyph-name="parenright" unicode=")" horiz-adv-x="407" 
d="M56 -257v129q103 91 145.5 175.5t42.5 196.5q0 119 -46 209.5t-148 171.5v130q131 -67 216.5 -206.5t85.5 -303.5q0 -150 -81 -290t-215 -212z" />
    <glyph glyph-name="asterisk" unicode="*" horiz-adv-x="573" 
d="M427 418l-57 -41l-83 118l-83 -118l-57 41l87 115l-138 43l22 66l136 -46l-1 144h70l-3 -144l136 46l22 -66l-138 -43z" />
    <glyph glyph-name="plus" unicode="+" horiz-adv-x="600" 
d="M352 0h-104v201h-200v104h200v201h104v-201h200v-104h-200v-201z" />
    <glyph glyph-name="comma" unicode="," horiz-adv-x="277" 
d="M87 -127v62q21 8 29 21t8 44h-37v122h104v-115q0 -113 -104 -134z" />
    <glyph glyph-name="hyphen" unicode="-" horiz-adv-x="280" 
d="M280 237h-280v104h280v-104z" />
    <glyph glyph-name="period" unicode="." horiz-adv-x="277" 
d="M191 0h-104v122h104v-122z" />
    <glyph glyph-name="slash" unicode="/" horiz-adv-x="499" 
d="M155 -100h-114l288 840h114z" />
    <glyph glyph-name="zero" unicode="0" 
d="M517 515v-292q0 -58 -22.5 -105t-58.5 -75t-77.5 -42.5t-82.5 -14.5q-92 0 -165 65.5t-73 181.5v275q0 112 72 179.5t170 67.5q100 0 168.5 -70.5t68.5 -169.5zM413 218v297q0 60 -34.5 102.5t-100.5 42.5q-63 0 -99.5 -41.5t-36.5 -103.5v-277q0 -68 35.5 -112.5
t100.5 -44.5q53 0 94 38t41 99z" />
    <glyph glyph-name="one" unicode="1" 
d="M361 0h-104v645h-109v95h213v-740z" />
    <glyph glyph-name="two" unicode="2" 
d="M504 0h-463v87l296 301q62 63 62 130q0 58 -36 99.5t-91 41.5q-59 0 -95 -43.5t-36 -115.5v-14h-104v13q0 119 69.5 187t163.5 68q98 0 165.5 -69.5t67.5 -169.5q0 -56 -22 -102t-82 -107l-205 -211h310v-95z" />
    <glyph glyph-name="three" unicode="3" 
d="M255 350h-34v104h34q47 0 78.5 26.5t31.5 76.5q0 42 -28.5 72t-70.5 30t-68 -27.5t-31 -76.5h-104q0 66 41 120q27 35 71.5 57t94.5 22q87 0 143 -57.5t56 -147.5q0 -47 -15.5 -78.5t-52.5 -65.5q100 -64 100 -184q0 -103 -67 -169t-173 -66q-98 0 -168 67t-71 165h104
q4 -63 42 -100t96 -37q55 0 94 40.5t39 95.5q0 54 -37.5 93.5t-104.5 39.5z" />
    <glyph glyph-name="four" unicode="4" 
d="M454 0h-104v116h-338v101l338 523h104v-529h78v-95h-78v-116zM350 211v356h-2l-216 -356h218z" />
    <glyph glyph-name="five" unicode="5" 
d="M459 645h-252l-28 -164q42 30 103 30q108 0 178 -74t70 -181q0 -114 -71 -192t-182 -78q-102 0 -170.5 64.5t-81.5 173.5h104q15 -70 54 -106.5t95 -36.5q60 0 104 48t44 114q0 71 -40.5 122t-103.5 51q-86 0 -133 -77l-90 21l62 380h338v-95z" />
    <glyph glyph-name="six" unicode="6" 
d="M412 740l-157 -243q21 5 44 5q101 0 169.5 -72.5t68.5 -177.5q0 -110 -73 -188t-182 -78q-116 0 -186.5 80t-70.5 176q0 86 58 176l206 322h123zM282 81q63 0 107 48t44 112q0 67 -41.5 116.5t-107.5 49.5q-64 0 -109.5 -47t-45.5 -112q0 -69 43 -118t110 -49z" />
    <glyph glyph-name="seven" unicode="7" 
d="M229 0h-116l279 645h-321v95h429v-95z" />
    <glyph glyph-name="eight" unicode="8" 
d="M277 456q43 0 70 29.5t27 75.5q0 40 -28 69t-69 29q-39 0 -67.5 -30.5t-28.5 -71.5t27.5 -71t68.5 -30zM276 81q53 0 92 39t39 92q0 56 -38 97t-93 41q-52 0 -90.5 -41t-38.5 -96q0 -54 38.5 -93t90.5 -39zM412 408q99 -67 99 -187q0 -95 -67.5 -165t-164.5 -70
q-99 0 -167.5 67.5t-68.5 159.5q0 64 23 110t74 85q-35 34 -49 66.5t-14 75.5q0 83 59 143.5t143 60.5q81 0 140 -60t59 -141q0 -51 -15 -82.5t-51 -62.5z" />
    <glyph glyph-name="nine" unicode="9" 
d="M266 0h-123l157 243q-28 -4 -44 -4q-101 0 -169.5 73.5t-68.5 176.5q0 111 74 188t180 77q115 0 186 -79t71 -173q0 -87 -63 -186zM272 334q62 0 107.5 47.5t45.5 110.5q0 69 -43.5 118t-109.5 49q-62 0 -106 -47.5t-44 -112.5q0 -66 43.5 -115.5t106.5 -49.5z" />
    <glyph glyph-name="colon" unicode=":" horiz-adv-x="277" 
d="M191 433h-104v122h104v-122zM191 0h-104v122h104v-122z" />
    <glyph glyph-name="semicolon" unicode=";" horiz-adv-x="277" 
d="M191 433h-104v122h104v-122zM87 -127v62q21 8 29 21t8 44h-37v122h104v-115q0 -113 -104 -134z" />
    <glyph glyph-name="less" unicode="&#x3c;" horiz-adv-x="600" 
d="M554 -8l-508 218v86l508 218v-102l-373 -159l373 -159v-102z" />
    <glyph glyph-name="equal" unicode="=" horiz-adv-x="600" 
d="M552 310h-504v104h504v-104zM552 92h-504v104h504v-104z" />
    <glyph glyph-name="greater" unicode="&#x3e;" horiz-adv-x="600" 
d="M554 210l-508 -218v102l373 159l-373 159v102l508 -218v-86z" />
    <glyph glyph-name="question" unicode="?" horiz-adv-x="518" 
d="M303 0h-104v122h104v-122zM303 190h-104q0 63 28.5 121t101.5 127q45 43 45 88q0 50 -34.5 86.5t-83.5 36.5q-47 0 -81.5 -32.5t-38.5 -87.5h-104q4 103 70 164t157 61q87 0 153 -66t66 -154q0 -22 -2 -40.5t-9 -35l-11 -26.5t-17.5 -26l-18 -21t-24 -23.5l-24.5 -23.5
q-30 -30 -46.5 -63t-22.5 -85z" />
    <glyph glyph-name="at" unicode="@" horiz-adv-x="760" 
d="M647 123l39 -61q-135 -75 -277 -75q-184 0 -291 104.5t-107 270.5q0 171 111 281t284 110q151 0 247 -90.5t96 -237.5q0 -107 -53.5 -188t-136.5 -81q-33 0 -56.5 16t-29.5 44h-2q-44 -60 -133 -60q-70 0 -113 51.5t-43 128.5q0 91 56 158.5t139 67.5q86 0 124 -69h2
l10 55h74l-42 -231q-8 -48 -8 -58q0 -11 7 -19t18 -8q52 0 79.5 55.5t27.5 142.5q0 112 -75.5 179.5t-195.5 67.5q-134 0 -220.5 -87.5t-86.5 -220.5q0 -142 85.5 -224t232.5 -82q155 0 238 60zM350 232q60 0 95.5 45t35.5 117q0 92 -100 92q-51 0 -85 -44t-34 -104
q0 -47 24 -76.5t64 -29.5z" />
    <glyph glyph-name="A" unicode="A" horiz-adv-x="684" 
d="M672 0h-115l-82 218h-266l-82 -218h-114l281 740h97zM438 317l-94 283h-2l-95 -283h191z" />
    <glyph glyph-name="B" unicode="B" horiz-adv-x="580" 
d="M308 0h-233v740h201q101 0 161.5 -56.5t60.5 -144.5q0 -47 -15 -80t-51 -64q110 -62 110 -180q0 -98 -65.5 -156.5t-168.5 -58.5zM183 432h89q56 0 87 26.5t31 77.5q0 105 -124 105h-83v-209zM183 99h116q59 0 97 31.5t38 84.5q0 45 -32.5 81.5t-99.5 36.5h-119v-234z
" />
    <glyph glyph-name="C" unicode="C" horiz-adv-x="782" 
d="M621 183h133q-115 -197 -342 -197q-100 0 -187 54t-137 142t-50 185q0 164 111.5 275.5t263.5 111.5q109 0 200.5 -51t145.5 -152h-130q-90 104 -208 104q-115 0 -195 -83t-80 -195q0 -118 78.5 -205t190.5 -87q120 0 206 98z" />
    <glyph glyph-name="D" unicode="D" horiz-adv-x="732" 
d="M306 0h-241v740h257q162 0 261.5 -109.5t99.5 -260.5q0 -170 -101 -270t-276 -100zM173 99h129q128 0 200.5 71t72.5 198q0 122 -76.5 197.5t-191.5 75.5h-134v-542z" />
    <glyph glyph-name="E" unicode="E" horiz-adv-x="520" 
d="M464 0h-399v740h399v-99h-291v-218h291v-99h-291v-225h291v-99z" />
    <glyph glyph-name="F" unicode="F" horiz-adv-x="482" 
d="M173 0h-108v740h374v-99h-266v-222h266v-99h-266v-320z" />
    <glyph glyph-name="G" unicode="G" horiz-adv-x="831" 
d="M676 269h-345v99h468q-5 -176 -119.5 -279t-270.5 -103q-150 0 -260.5 112t-110.5 262q0 116 54 207.5t138 139t179 47.5q108 0 196 -51t143 -149h-126q-88 101 -208 101q-107 0 -187.5 -86t-80.5 -196q0 -117 80.5 -202.5t191.5 -85.5q88 0 155.5 47.5t102.5 136.5z" />
    <glyph glyph-name="H" unicode="H" horiz-adv-x="670" 
d="M596 0h-108v322h-305v-322h-108v740h108v-319h305v319h108v-740z" />
    <glyph glyph-name="I" unicode="I" horiz-adv-x="257" 
d="M183 0h-108v740h108v-740z" />
    <glyph glyph-name="J" unicode="J" horiz-adv-x="487" 
d="M300 200v540h108v-537q0 -101 -56.5 -159t-147.5 -58q-75 0 -132 45t-72 117h111q24 -63 94 -63q45 0 70 31.5t25 83.5z" />
    <glyph glyph-name="K" unicode="K" horiz-adv-x="618" 
d="M198 0h-108v740h108v-740zM614 0h-133l-281 373l281 367h133l-289 -367z" />
    <glyph glyph-name="L" unicode="L" horiz-adv-x="444" 
d="M444 0h-365v740h108v-641h257v-99z" />
    <glyph glyph-name="M" unicode="M" horiz-adv-x="934" 
d="M860 0h-108v625h-3l-249 -625h-65l-250 625h-2v-625h-108v740h170l222 -567l223 567h170v-740z" />
    <glyph glyph-name="N" unicode="N" horiz-adv-x="738" 
d="M663 0h-112l-366 572h-2v-572h-108v740h118l360 -563h2v563h108v-740z" />
    <glyph glyph-name="O" unicode="O" horiz-adv-x="846" 
d="M423 85q124 0 200.5 87t76.5 196q0 117 -78.5 202t-193.5 85q-57 0 -105.5 -19t-80.5 -48.5t-54 -67.5t-32 -75.5t-10 -71.5q0 -117 77.5 -202.5t199.5 -85.5zM808 375q0 -167 -113 -278t-278 -111q-153 0 -266 112.5t-113 263.5q0 168 112 280t270 112
q163 0 275.5 -111.5t112.5 -267.5z" />
    <glyph glyph-name="P" unicode="P" horiz-adv-x="559" 
d="M173 0h-108v740h215q121 0 190.5 -58.5t69.5 -165.5q0 -108 -69 -166t-190 -58h-108v-292zM173 391h107q72 0 112 32.5t40 92.5t-41 92.5t-112 32.5h-106v-250z" />
    <glyph glyph-name="Q" unicode="Q" horiz-adv-x="837" 
d="M816 86v-100q-100 0 -186 57q-104 -57 -219 -57q-152 1 -262.5 114.5t-110.5 263.5q0 169 110.5 279.5t265.5 110.5q163 0 274.5 -111t111.5 -273q0 -137 -91 -258q44 -26 99 -26h8zM621 177q71 88 71 193q0 113 -79 199t-187 86q-120 0 -200 -85t-80 -201q0 -41 10 -76
q57 23 140 23q156 0 325 -139zM534 118q-133 99 -248 99q-50 0 -85 -17q39 -54 98 -84.5t123 -30.5q66 0 112 33z" />
    <glyph glyph-name="R" unicode="R" horiz-adv-x="594" 
d="M554 0h-135l-244 343h-2v-343h-108v740h237q130 0 193.5 -64t63.5 -182q0 -100 -63.5 -158t-148.5 -60zM173 358h79q96 0 147.5 37t51.5 108q0 63 -45.5 100.5t-118.5 37.5h-114v-283z" />
    <glyph glyph-name="S" unicode="S" horiz-adv-x="499" 
d="M458 548h-108q0 50 -29 78.5t-75 28.5q-39 0 -69 -30.5t-30 -70.5q0 -38 26 -62.5t81 -42.5q121 -39 170 -91.5t49 -147.5q0 -100 -64 -162t-163 -62t-163 64.5t-65 168.5h108q1 -60 33.5 -97t86.5 -37t86.5 35t32.5 90q0 42 -23 68.5t-80 46.5q-132 45 -177.5 94.5
t-45.5 132.5q0 84 60.5 143t146.5 59q93 0 152 -55.5t60 -150.5z" />
    <glyph glyph-name="T" unicode="T" horiz-adv-x="407" 
d="M257 0h-108v641h-142v99h392v-99h-142v-641z" />
    <glyph glyph-name="U" unicode="U" horiz-adv-x="643" 
d="M461 242v498h108v-506q0 -113 -70.5 -180.5t-177.5 -67.5t-177.5 67.5t-70.5 180.5v506h108v-498q0 -70 37.5 -113.5t102.5 -43.5t102.5 43.5t37.5 113.5z" />
    <glyph glyph-name="V" unicode="V" horiz-adv-x="684" 
d="M375 0h-65l-298 740h116l215 -555l215 555h114z" />
    <glyph glyph-name="W" unicode="W" horiz-adv-x="906" 
d="M683 0h-95l-134 517h-2l-134 -517h-95l-207 740h112l141 -557h2l143 557h79l141 -553h2l144 553h110z" />
    <glyph glyph-name="X" unicode="X" horiz-adv-x="648" 
d="M634 0h-127l-184 282l-186 -282h-126l245 371l-245 369h129l183 -280l185 280h128l-247 -369z" />
    <glyph glyph-name="Y" unicode="Y" horiz-adv-x="593" 
d="M351 0h-108v267l-230 473h121l163 -347l162 347h120l-228 -473v-267z" />
    <glyph glyph-name="Z" unicode="Z" horiz-adv-x="462" 
d="M459 0h-455v99l321 542h-304v99h425v-99l-319 -542h332v-99z" />
    <glyph glyph-name="bracketleft" unicode="[" horiz-adv-x="407" 
d="M329 -134v-123q-91 37 -147.5 112t-56.5 156v460q0 93 52.5 169t151.5 115v-121q-97 -61 -97 -174v-414q0 -65 23.5 -107.5t73.5 -72.5z" />
    <glyph glyph-name="backslash" unicode="\" horiz-adv-x="499" 
d="M458 -100h-114l-288 840h114z" />
    <glyph glyph-name="bracketright" unicode="]" horiz-adv-x="407" 
d="M78 -257v123q52 32 74.5 73.5t22.5 106.5v414q0 113 -97 174v121q99 -39 151.5 -115t52.5 -169v-460q0 -81 -56.5 -156t-147.5 -112z" />
    <glyph glyph-name="asciicircum" unicode="^" horiz-adv-x="600" 
d="M534 355h-104l-130 280l-130 -280h-104l187 385h94z" />
    <glyph glyph-name="underscore" unicode="_" horiz-adv-x="500" 
d="M500 -125h-500v50h500v-50z" />
    <glyph glyph-name="grave" unicode="`" 
d="M357 598l-225 123l44 80l223 -128z" />
    <glyph glyph-name="a" unicode="a" horiz-adv-x="693" 
d="M331 81q80 0 136.5 58t56.5 137q0 83 -54 140.5t-139 57.5q-78 0 -133.5 -58t-55.5 -140q0 -79 56 -137t133 -58zM626 0h-104v86h-2q-29 -49 -78.5 -74.5t-109.5 -25.5q-122 0 -208 81.5t-86 200.5q0 131 83 216t207 85q129 0 192 -93h2v78h104v-554z" />
    <glyph glyph-name="b" unicode="b" horiz-adv-x="688" 
d="M170 0h-103v740h104v-263h2q68 92 190 92q118 0 202.5 -86t84.5 -206q0 -118 -81 -204.5t-197 -86.5q-130 0 -200 94h-2v-80zM357 81q77 0 133 57.5t56 138.5q0 80 -55.5 138.5t-134.5 58.5q-77 0 -132.5 -58t-55.5 -137q0 -83 55 -140.5t134 -57.5z" />
    <glyph glyph-name="c" unicode="c" horiz-adv-x="627" 
d="M479 183h116q-33 -93 -106.5 -145t-166.5 -52q-119 0 -201.5 83.5t-82.5 202.5q0 126 81 211.5t202 85.5q96 0 173 -55t101 -144h-115q-50 104 -156 104q-81 0 -131.5 -55t-50.5 -141q0 -83 51 -140t129 -57q53 0 94 27t63 75z" />
    <glyph glyph-name="d" unicode="d" horiz-adv-x="687" 
d="M524 272q0 86 -53.5 144t-139.5 58q-79 0 -134 -58t-55 -140q0 -79 56 -137t133 -58q79 0 136 56t57 135zM620 0h-96v79h-2q-67 -93 -196 -93q-121 0 -204.5 81.5t-83.5 203.5q0 127 81 212.5t204 85.5q124 0 191 -83h2v254h104v-740z" />
    <glyph glyph-name="e" unicode="e" horiz-adv-x="642" 
d="M143 312h358q-6 69 -59 115.5t-121 46.5q-66 0 -119 -46.5t-59 -115.5zM602 232h-459q18 -69 68 -110t114 -41q49 0 91.5 24.5t66.5 68.5h104q-32 -86 -104.5 -137t-161.5 -51q-115 0 -198.5 86.5t-83.5 199.5q0 128 83 212.5t196 84.5q122 0 204.5 -82.5t82.5 -202.5
q0 -33 -3 -52z" />
    <glyph glyph-name="f" unicode="f" horiz-adv-x="277" 
d="M174 0h-104v459h-49v95h49v25q0 77 49 119t129 42h23v-95q-97 0 -97 -65v-26h97v-95h-97v-459z" />
    <glyph glyph-name="g" unicode="g" horiz-adv-x="697" 
d="M527 73h-2q-64 -87 -191 -87q-119 0 -207.5 87t-88.5 200q0 125 86 210.5t211 85.5q55 0 107 -21.5t85 -57.5v64h104v-481q0 -136 -79.5 -213.5t-219.5 -77.5q-94 0 -166 46.5t-108 128.5h116q57 -80 159 -80q95 0 144.5 50.5t49.5 145.5zM333 81q86 0 140 61.5t54 134.5
q0 92 -58.5 144.5t-136.5 52.5q-77 0 -133.5 -58t-56.5 -139q0 -79 57 -137.5t134 -58.5z" />
    <glyph glyph-name="h" unicode="h" horiz-adv-x="622" 
d="M558 0h-104v301q0 173 -138 173q-68 0 -107 -46.5t-39 -127.5v-300h-104v740h104v-245h2q50 74 155 74q102 0 166.5 -62.5t64.5 -173.5v-333z" />
    <glyph glyph-name="i" unicode="i" horiz-adv-x="238" 
d="M171 618h-104v122h104v-122zM171 0h-104v554h104v-554z" />
    <glyph glyph-name="j" unicode="j" horiz-adv-x="249" 
d="M184 618h-104v122h104v-122zM11 -218v109q36 3 52.5 22.5t16.5 78.5v562h104v-590q0 -82 -56.5 -132t-116.5 -50z" />
    <glyph glyph-name="k" unicode="k" horiz-adv-x="546" 
d="M181 0h-104v740h104v-740zM535 0h-130l-222 287l197 267h123l-201 -261z" />
    <glyph glyph-name="l" unicode="l" horiz-adv-x="238" 
d="M171 0h-104v740h104v-740z" />
    <glyph glyph-name="m" unicode="m" horiz-adv-x="971" 
d="M905 0h-104v310q0 79 -33 121.5t-98 42.5q-69 0 -100.5 -39t-31.5 -123v-312h-104v322q0 152 -126 152q-137 0 -137 -163v-311h-104v554h96v-60h2q34 40 70 57.5t89 17.5q55 0 103 -25t69 -68q59 93 183 93q107 0 166.5 -62.5t59.5 -170.5v-336z" />
    <glyph glyph-name="n" unicode="n" horiz-adv-x="624" 
d="M558 0h-104v302q0 172 -138 172q-68 0 -107 -46.5t-39 -124.5v-303h-104v554h97v-59h2q57 74 162 74q103 0 167 -62.5t64 -174.5v-332z" />
    <glyph glyph-name="o" unicode="o" horiz-adv-x="675" 
d="M636 273q-2 -115 -88 -201t-215 -86q-118 0 -206.5 86.5t-88.5 202.5q0 126 87.5 210t215.5 84q119 0 207.5 -84t87.5 -212zM532 279q0 81 -57 138t-139 57q-78 0 -136 -58t-58 -138q0 -79 57 -138t135 -59q82 0 140 57.5t58 140.5z" />
    <glyph glyph-name="p" unicode="p" horiz-adv-x="686" 
d="M171 -185h-104v739h95v-85h2q70 100 197 100q124 0 205.5 -85.5t81.5 -213.5q0 -118 -81 -201t-199 -83q-64 0 -116 25t-79 69h-2v-265zM357 81q79 0 133 57.5t54 137.5q0 78 -55 138t-136 60q-77 0 -130.5 -58.5t-53.5 -137.5q0 -82 54 -139.5t134 -57.5z" />
    <glyph glyph-name="q" unicode="q" horiz-adv-x="687" 
d="M620 -185h-104v262h-2q-31 -43 -80 -67t-105 -24q-122 0 -206 85t-84 207q0 121 83 206t204 85q62 0 117 -27t79 -62h2v74h96v-739zM335 81q80 0 135 57.5t55 136.5q0 84 -55.5 141.5t-137.5 57.5q-79 0 -134 -56.5t-55 -139.5q0 -84 55.5 -140.5t136.5 -56.5z" />
    <glyph glyph-name="r" unicode="r" horiz-adv-x="320" 
d="M171 0h-104v554h97v-50h2q40 59 141 65v-107q-67 -2 -101.5 -41.5t-34.5 -109.5v-311z" />
    <glyph glyph-name="s" unicode="s" horiz-adv-x="424" 
d="M389 407h-104q-8 67 -71 67q-29 0 -47 -17t-18 -42q0 -22 16.5 -38t33 -22.5t53.5 -17.5q150 -46 150 -174q0 -80 -52 -128.5t-134 -48.5q-80 0 -138 52.5t-58 143.5h104q8 -101 94 -101q36 0 58 21t22 55q0 54 -94 84t-126.5 70t-32.5 95q0 71 51.5 117t122.5 46
q70 0 119 -45t51 -117z" />
    <glyph glyph-name="t" unicode="t" horiz-adv-x="277" 
d="M183 0h-104v459h-75v95h75v186h104v-186h91v-95h-91v-459z" />
    <glyph glyph-name="u" unicode="u" horiz-adv-x="624" 
d="M557 0h-95v60h-2q-20 -35 -64 -54.5t-99 -19.5q-100 0 -165.5 61.5t-65.5 197.5v309h104v-301q0 -87 33.5 -129.5t104.5 -42.5t108 46t37 128v299h104v-554z" />
    <glyph glyph-name="v" unicode="v" horiz-adv-x="537" 
d="M306 0h-73l-220 554h111l145 -396h2l142 396h111z" />
    <glyph glyph-name="w" unicode="w" horiz-adv-x="795" 
d="M577 0h-58l-120 373h-2l-120 -373h-57l-207 554h111l123 -360h2l115 360h68l115 -360h2l122 360h111z" />
    <glyph glyph-name="x" unicode="x" horiz-adv-x="518" 
d="M516 0h-122l-137 197l-134 -197h-121l192 284l-185 270h126l122 -182l121 182h126l-181 -270z" />
    <glyph glyph-name="y" unicode="y" horiz-adv-x="574" 
d="M258 -185h-108l81 196l-221 543h112l163 -430l167 430h112z" />
    <glyph glyph-name="z" unicode="z" horiz-adv-x="407" 
d="M404 0h-401v81l266 378h-240v95h354v-101l-251 -358h272v-95z" />
    <glyph glyph-name="braceleft" unicode="{" horiz-adv-x="333" 
d="M308 -198h-66q-57 0 -96.5 38t-39.5 97v204q0 36 -25.5 62.5t-66.5 27.5v86q40 1 66 25.5t26 55.5v206q0 59 39.5 97.5t95.5 38.5h67v-79h-45q-53 0 -53 -70v-206q0 -43 -26.5 -73t-72.5 -36v-3q99 -13 99 -115v-207q0 -70 53 -70h45v-79z" />
    <glyph glyph-name="bar" unicode="|" 
d="M334 -100h-113v840h113v-840z" />
    <glyph glyph-name="braceright" unicode="}" horiz-adv-x="333" 
d="M91 -198h-66v79h45q53 0 53 70v201q0 48 25.5 78t73.5 36v3q-48 6 -73.5 37t-25.5 82v203q0 70 -53 70h-45v79h67q57 0 96 -38t39 -98v-202q0 -38 25.5 -64t66.5 -27v-86q-41 -1 -66.5 -25t-25.5 -59v-204q0 -59 -39 -97t-97 -38z" />
    <glyph glyph-name="asciitilde" unicode="~" horiz-adv-x="650" 
d="M518 382l69 -79q-35 -49 -71.5 -70.5t-83.5 -21.5q-54 0 -115 32t-94 32q-49 0 -90 -67l-69 79q35 49 71.5 70.5t82.5 21.5q54 0 115.5 -32t95.5 -32q47 0 89 67z" />
    <glyph glyph-name="uni00A0" unicode="&#xa0;" horiz-adv-x="295" 
 />
    <glyph glyph-name="exclamdown" unicode="&#xa1;" horiz-adv-x="277" 
d="M190 433h-104v122h104v-122zM190 -185h-104v555h104v-555z" />
    <glyph glyph-name="cent" unicode="&#xa2;" 
d="M332 69h-95v98q-93 22 -146 86.5t-53 154.5q0 89 54 153.5t145 82.5v96h95v-96q136 -22 185 -159h-119q-13 27 -43.5 43t-68.5 16q-61 0 -102.5 -40.5t-41.5 -100.5q0 -58 42 -98.5t102 -40.5q73 0 111 55h117q-44 -121 -182 -152v-98z" />
    <glyph glyph-name="sterling" unicode="&#xa3;" 
d="M320 0h-278v95h132q21 40 21 89q0 93 -74 143h-112v95h40q-23 35 -23 90q0 108 69 175t176 67q90 0 157 -54.5t86 -145.5h-113q-32 105 -133 105q-60 0 -99 -42t-39 -105q0 -54 37 -90h219v-95h-140q53 -47 53 -145q0 -37 -13 -87h28q62 0 95 32t33 89q0 31 -14 56h112
q6 -30 6 -55q0 -100 -62 -158.5t-164 -58.5z" />
    <glyph glyph-name="currency" unicode="&#xa4;" horiz-adv-x="590" 
d="M517 68l-79 80q-65 -47 -143 -47t-143 47l-80 -79l-54 53l82 82q-47 62 -47 137q0 79 48 141l-84 82l55 55l83 -83q63 46 140 46q78 0 138 -45l83 81l54 -54l-81 -81q47 -65 47 -142q0 -74 -46 -137l81 -81zM295 199q59 0 100.5 42.5t41.5 100.5q0 59 -41.5 101
t-101.5 42q-58 0 -100 -42.5t-42 -101.5q0 -57 42.5 -99.5t100.5 -42.5z" />
    <glyph glyph-name="yen" unicode="&#xa5;" 
d="M535 200h-206v-200h-104v200h-205v86h205v43l-39 71h-166v86h123l-143 254h113l164 -298l165 298h113l-144 -254h124v-86h-167l-39 -71v-43h206v-86z" />
    <glyph glyph-name="brokenbar" unicode="&#xa6;" 
d="M334 404h-113v336h113v-336zM334 -100h-113v336h113v-336z" />
    <glyph glyph-name="section" unicode="&#xa7;" horiz-adv-x="573" 
d="M67 -6h104q4 -56 35.5 -86.5t83.5 -30.5q49 0 79 28t30 72q0 22 -11 40.5t-32.5 33.5t-43 26.5t-54 27.5t-53.5 28l-42 22t-46.5 26.5t-36 30t-30 46.5t-9.5 62q0 100 93 155q-39 54 -39 105q0 69 53 121.5t139 52.5q84 0 138 -49t65 -140h-104q-14 90 -95 90
q-42 0 -67 -22t-25 -60q0 -21 14 -39t58 -41l123 -64q77 -38 108.5 -76t31.5 -90q0 -95 -90 -154q59 -52 59 -129q0 -89 -62.5 -145.5t-153.5 -56.5q-92 0 -153 58.5t-67 157.5zM367 330l-171 87q-51 -33 -51 -88q0 -53 54 -81l176 -90q55 44 55 92q0 25 -13 43t-50 37z" />
    <glyph glyph-name="dieresis" unicode="&#xa8;" 
d="M251 634h-104v122h104v-122zM406 634h-104v122h104v-122z" />
    <glyph glyph-name="copyright" unicode="&#xa9;" horiz-adv-x="800" 
d="M523 295h75q-9 -68 -64.5 -110t-128.5 -42q-94 0 -154 63.5t-60 164.5q0 100 59.5 164t154.5 64q72 0 128.5 -42t64.5 -110h-75q-27 81 -117 81q-61 0 -100.5 -45t-39.5 -112q0 -69 38.5 -113t101.5 -44q92 0 117 81zM401 -12q-159 0 -271 112t-112 273q0 157 113 268
t270 111q161 0 271 -113t110 -266q0 -157 -110 -271t-271 -114zM403 64q120 0 209.5 88t89.5 221q0 126 -90 214.5t-209 88.5q-133 0 -219 -91t-86 -216q0 -122 86.5 -213.5t218.5 -91.5z" />
    <glyph glyph-name="ordfeminine" unicode="&#xaa;" horiz-adv-x="415" 
d="M359 438h-80v35h-2q-11 -19 -36.5 -31t-53.5 -12q-68 0 -114.5 46.5t-46.5 114.5q0 69 46.5 116t116.5 47q59 0 88 -43h2v35h80v-308zM280 592q0 36 -26 61.5t-65 25.5q-35 0 -59 -25.5t-24 -62.5q0 -34 24 -60t59 -26q40 0 65.5 24t25.5 63z" />
    <glyph glyph-name="guillemotleft" unicode="&#xab;" horiz-adv-x="370" 
d="M170 102l-137 134v103l137 136v-113l-75 -74l75 -74v-112zM337 102l-137 134v103l137 136v-113l-75 -74l75 -74v-112z" />
    <glyph glyph-name="logicalnot" unicode="&#xac;" horiz-adv-x="600" 
d="M552 108h-104v202h-400v104h504v-306z" />
    <glyph glyph-name="uni00AD" unicode="&#xad;" horiz-adv-x="280" 
d="M280 237h-280v104h280v-104z" />
    <glyph glyph-name="registered" unicode="&#xae;" horiz-adv-x="800" 
d="M581 148h-75q-13 18 -13 75q0 59 -19 79.5t-71 20.5h-91v-175h-75v437h186q73 0 112.5 -30.5t39.5 -88.5q0 -85 -81 -106v-2q41 -12 57 -38t16 -88q0 -61 14 -84zM312 393h99q44 0 66.5 17.5t22.5 48.5q0 55 -82 55h-106v-121zM401 -12q-159 0 -271 112t-112 273
q0 157 113 268t270 111q161 0 271 -113t110 -266q0 -157 -110 -271t-271 -114zM403 64q120 0 209.5 88t89.5 221q0 126 -90 214.5t-209 88.5q-133 0 -219 -91t-86 -216q0 -122 86.5 -213.5t218.5 -91.5z" />
    <glyph glyph-name="macron" unicode="&#xaf;" 
d="M456 652h-358v83h358v-83z" />
    <glyph glyph-name="degree" unicode="&#xb0;" horiz-adv-x="400" 
d="M200 426q-60 0 -101.5 42t-41.5 101q0 60 41.5 101.5t101.5 41.5q62 0 102.5 -42.5t40.5 -100.5q0 -59 -41.5 -101t-101.5 -42zM200 485q33 0 57 25.5t24 59.5q0 33 -24 58t-57 25t-57 -25t-24 -58q0 -34 24 -59.5t57 -25.5z" />
    <glyph glyph-name="plusminus" unicode="&#xb1;" horiz-adv-x="600" 
d="M552 332h-200v-162h-104v162h-200v104h200v162h104v-162h200v-104zM552 0h-504v104h504v-104z" />
    <glyph glyph-name="twosuperior" unicode="&#xb2;" horiz-adv-x="351" 
d="M318 422h-290v62l170 172q39 39 39 74q0 30 -18 50t-46 20q-30 0 -49 -20t-19 -53v-17h-80v17q0 63 43 106t102 43q60 0 103.5 -42.5t43.5 -103.5q0 -62 -59 -121l-110 -111h170v-76z" />
    <glyph glyph-name="threesuperior" unicode="&#xb3;" horiz-adv-x="335" 
d="M162 625h-24v76h21q57 0 57 52q0 22 -13 34.5t-35 12.5q-21 0 -33.5 -14t-13.5 -36h-80q1 55 38 90.5t89 35.5q53 0 90.5 -38t37.5 -91q0 -46 -40 -83q60 -34 60 -108q0 -60 -44.5 -102t-107.5 -42q-60 0 -104 41.5t-44 104.5h80q7 -70 72 -70q30 0 49 19t19 49
q0 31 -20.5 50t-53.5 19z" />
    <glyph glyph-name="acute" unicode="&#xb4;" 
d="M425 724l-225 -122l-42 75l223 128z" />
    <glyph glyph-name="mu" unicode="&#xb5;" horiz-adv-x="629" 
d="M563 0h-98v79h-3q-23 -44 -64.5 -68.5t-93.5 -24.5q-89 0 -134 54v-225h-104v739h104v-310q0 -163 142 -163q67 0 107 46.5t40 128.5v298h104v-554z" />
    <glyph glyph-name="paragraph" unicode="&#xb6;" horiz-adv-x="638" 
d="M535 -191h-104v811h-106v-811h-104v534q-103 1 -161 47.5t-58 127.5q0 182 235 182h298v-891z" />
    <glyph glyph-name="periodcentered" unicode="&#xb7;" horiz-adv-x="277" 
d="M184 200h-91v108h91v-108z" />
    <glyph glyph-name="cedilla" unicode="&#xb8;" 
d="M245 -114l-46 21l44 93h59l-27 -55q7 3 18 3q33 0 55.5 -23.5t22.5 -58.5q0 -40 -26.5 -65.5t-67.5 -25.5q-38 0 -63 21.5t-30 57.5h54q8 -31 39 -31q18 0 29 12t11 31q0 17 -11.5 28t-27.5 11q-20 0 -33 -19z" />
    <glyph glyph-name="onesuperior" unicode="&#xb9;" horiz-adv-x="246" 
d="M175 422h-80v368h-62v76h142v-444z" />
    <glyph glyph-name="ordmasculine" unicode="&#xba;" horiz-adv-x="385" 
d="M358 593q0 -65 -48.5 -114t-117.5 -49t-117.5 48.5t-48.5 115.5t49 113.5t117 46.5t117 -47t49 -114zM192 505q35 0 60.5 25.5t25.5 62.5q0 36 -25 61t-62 25q-35 0 -60 -25.5t-25 -61.5t25.5 -61.5t60.5 -25.5z" />
    <glyph glyph-name="guillemotright" unicode="&#xbb;" horiz-adv-x="370" 
d="M170 236l-137 -134v112l75 74l-75 74v113l137 -136v-103zM337 236l-137 -134v112l75 74l-75 74v113l137 -136v-103z" />
    <glyph glyph-name="onequarter" unicode="&#xbc;" horiz-adv-x="700" 
d="M158 296h-80v368h-62v76h142v-444zM200 0h-73l333 740h73zM636 0h-70v69h-206v69l208 306h68v-307h48v-68h-48v-69zM566 137v190h-2l-121 -190h123z" />
    <glyph glyph-name="onehalf" unicode="&#xbd;" horiz-adv-x="714" 
d="M158 296h-80v368h-62v76h142v-444zM176 0h-73l333 740h73zM698 0h-290v62l170 172q39 39 39 74q0 30 -18 50t-46 20q-30 0 -49 -20t-19 -53v-17h-80v17q0 63 43 106t102 43q60 0 103.5 -42.5t43.5 -103.5q0 -62 -59 -121l-110 -111h170v-76z" />
    <glyph glyph-name="threequarters" unicode="&#xbe;" horiz-adv-x="781" 
d="M162 499h-24v76h21q57 0 57 52q0 22 -13 34.5t-35 12.5q-21 0 -33.5 -14t-13.5 -36h-80q1 55 38 90.5t89 35.5q53 0 90.5 -38t37.5 -91q0 -46 -40 -83q60 -34 60 -108q0 -60 -44.5 -102t-107.5 -42q-60 0 -104 41.5t-44 104.5h80q7 -70 72 -70q30 0 49 19t19 49
q0 31 -20.5 50t-53.5 19zM281 0h-73l333 740h73zM717 0h-70v69h-206v69l208 306h68v-307h48v-68h-48v-69zM647 137v190h-2l-121 -190h123z" />
    <glyph glyph-name="questiondown" unicode="&#xbf;" horiz-adv-x="518" 
d="M319 433h-104v122h104v-122zM382 26h104q-2 -101 -69 -163t-153 -62q-94 0 -159 66t-65 158q0 53 17.5 88.5t65.5 80.5q48 44 66 77t26 94h104q-2 -67 -29 -122t-103 -128q-43 -42 -43 -86q0 -51 34.5 -87t83.5 -36q46 0 80.5 32t39.5 88z" />
    <glyph glyph-name="Agrave" unicode="&#xc0;" horiz-adv-x="684" 
d="M672 0h-115l-82 218h-266l-82 -218h-114l281 740h97zM438 317l-94 283h-2l-95 -283h191zM412 772l-225 123l44 80l223 -128z" />
    <glyph glyph-name="Aacute" unicode="&#xc1;" horiz-adv-x="684" 
d="M672 0h-115l-82 218h-266l-82 -218h-114l281 740h97zM438 317l-94 283h-2l-95 -283h191zM496 894l-225 -122l-42 75l223 128z" />
    <glyph glyph-name="Acircumflex" unicode="&#xc2;" horiz-adv-x="684" 
d="M672 0h-115l-82 218h-266l-82 -218h-114l281 740h97zM438 317l-94 283h-2l-95 -283h191zM532 793h-119l-69 69l-72 -69h-120l140 135h100z" />
    <glyph glyph-name="Atilde" unicode="&#xc3;" horiz-adv-x="684" 
d="M672 0h-115l-82 218h-266l-82 -218h-114l281 740h97zM438 317l-94 283h-2l-95 -283h191zM483 911l43 -63q-56 -46 -109 -46q-19 0 -71.5 13t-69.5 13q-28 0 -70 -22l-47 65q60 39 103 39q18 0 71.5 -13.5t69.5 -13.5q22 0 80 28z" />
    <glyph glyph-name="Adieresis" unicode="&#xc4;" horiz-adv-x="684" 
d="M672 0h-115l-82 218h-266l-82 -218h-114l281 740h97zM438 317l-94 283h-2l-95 -283h191zM317 797h-104v122h104v-122zM472 797h-104v122h104v-122z" />
    <glyph glyph-name="Aring" unicode="&#xc5;" horiz-adv-x="684" 
d="M672 0h-115l-82 218h-266l-82 -218h-114l281 740h97zM438 317l-94 283h-2l-95 -283h191zM453 871q0 -45 -32.5 -77.5t-78.5 -32.5q-45 0 -77.5 32.5t-32.5 77.5q0 47 32.5 79t78.5 32q45 0 77.5 -33t32.5 -78zM395 872q0 23 -16 38t-39 15q-21 0 -36 -16t-15 -37
t16 -36.5t37 -15.5t37 15t16 37z" />
    <glyph glyph-name="AE" unicode="&#xc6;" horiz-adv-x="930" 
d="M866 0h-360v205h-244l-135 -205h-127l497 740h369v-99h-252v-218h252v-99h-252v-225h252v-99zM506 304v276h-3l-170 -276h173z" />
    <glyph glyph-name="Ccedilla" unicode="&#xc7;" horiz-adv-x="782" 
d="M369 -129l-34 32l29 88q-140 21 -233 129t-93 249q0 164 111.5 274.5t263.5 110.5q109 0 200.5 -51t145.5 -152h-130q-90 104 -208 104q-115 0 -195 -83t-80 -195q0 -118 78.5 -205t190.5 -87q120 0 206 98h133q-52 -93 -141.5 -145t-197.5 -52l-17 -54q6 1 19 1
q36 0 59.5 -24.5t23.5 -59.5q0 -41 -28 -68t-70 -27q-37 0 -63 23t-30 59h53q6 -31 41 -31q19 0 30.5 11t11.5 30q0 18 -12 28.5t-30 10.5q-20 0 -34 -14z" />
    <glyph glyph-name="Egrave" unicode="&#xc8;" horiz-adv-x="520" 
d="M464 0h-399v740h399v-99h-291v-218h291v-99h-291v-225h291v-99zM333 778l-225 123l44 80l223 -128z" />
    <glyph glyph-name="Eacute" unicode="&#xc9;" horiz-adv-x="520" 
d="M464 0h-399v740h399v-99h-291v-218h291v-99h-291v-225h291v-99zM414 899l-225 -122l-42 75l223 128z" />
    <glyph glyph-name="Ecircumflex" unicode="&#xca;" horiz-adv-x="520" 
d="M464 0h-399v740h399v-99h-291v-218h291v-99h-291v-225h291v-99zM450 793h-119l-69 69l-72 -69h-120l140 135h100z" />
    <glyph glyph-name="Edieresis" unicode="&#xcb;" horiz-adv-x="520" 
d="M464 0h-399v740h399v-99h-291v-218h291v-99h-291v-225h291v-99zM235 802h-104v122h104v-122zM390 802h-104v122h104v-122z" />
    <glyph glyph-name="Igrave" unicode="&#xcc;" horiz-adv-x="257" 
d="M183 0h-108v740h108v-740zM161 778l-225 123l44 80l223 -128z" />
    <glyph glyph-name="Iacute" unicode="&#xcd;" horiz-adv-x="257" 
d="M183 0h-108v740h108v-740zM322 899l-225 -122l-42 75l223 128z" />
    <glyph glyph-name="Icircumflex" unicode="&#xce;" horiz-adv-x="257" 
d="M183 0h-108v740h108v-740zM318 793h-119l-69 69l-72 -69h-120l140 135h100z" />
    <glyph glyph-name="Idieresis" unicode="&#xcf;" horiz-adv-x="257" 
d="M183 0h-108v740h108v-740zM103 802h-104v122h104v-122zM258 802h-104v122h104v-122z" />
    <glyph glyph-name="Eth" unicode="&#xd0;" horiz-adv-x="752" 
d="M326 0h-241v322h-63v99h63v319h257q162 0 261.5 -109.5t99.5 -260.5q0 -170 -101 -270t-276 -100zM193 99h129q128 0 200.5 71t72.5 198q0 122 -76.5 197.5t-191.5 75.5h-134v-220h193v-99h-193v-223z" />
    <glyph glyph-name="Ntilde" unicode="&#xd1;" horiz-adv-x="738" 
d="M663 0h-112l-366 572h-2v-572h-108v740h118l360 -563h2v563h108v-740zM510 911l43 -63q-56 -46 -109 -46q-19 0 -71.5 13t-69.5 13q-28 0 -70 -22l-47 65q60 39 103 39q18 0 71.5 -13.5t69.5 -13.5q22 0 80 28z" />
    <glyph glyph-name="Ograve" unicode="&#xd2;" horiz-adv-x="846" 
d="M423 85q124 0 200.5 87t76.5 196q0 117 -78.5 202t-193.5 85q-57 0 -105.5 -19t-80.5 -48.5t-54 -67.5t-32 -75.5t-10 -71.5q0 -117 77.5 -202.5t199.5 -85.5zM808 375q0 -167 -113 -278t-278 -111q-153 0 -266 112.5t-113 263.5q0 168 112 280t270 112
q163 0 275.5 -111.5t112.5 -267.5zM496 778l-225 123l44 80l223 -128z" />
    <glyph glyph-name="Oacute" unicode="&#xd3;" horiz-adv-x="846" 
d="M423 85q124 0 200.5 87t76.5 196q0 117 -78.5 202t-193.5 85q-57 0 -105.5 -19t-80.5 -48.5t-54 -67.5t-32 -75.5t-10 -71.5q0 -117 77.5 -202.5t199.5 -85.5zM808 375q0 -167 -113 -278t-278 -111q-153 0 -266 112.5t-113 263.5q0 168 112 280t270 112
q163 0 275.5 -111.5t112.5 -267.5zM577 899l-225 -122l-42 75l223 128z" />
    <glyph glyph-name="Ocircumflex" unicode="&#xd4;" horiz-adv-x="846" 
d="M423 85q124 0 200.5 87t76.5 196q0 117 -78.5 202t-193.5 85q-57 0 -105.5 -19t-80.5 -48.5t-54 -67.5t-32 -75.5t-10 -71.5q0 -117 77.5 -202.5t199.5 -85.5zM808 375q0 -167 -113 -278t-278 -111q-153 0 -266 112.5t-113 263.5q0 168 112 280t270 112
q163 0 275.5 -111.5t112.5 -267.5zM613 793h-119l-69 69l-72 -69h-120l140 135h100z" />
    <glyph glyph-name="Otilde" unicode="&#xd5;" horiz-adv-x="846" 
d="M423 85q124 0 200.5 87t76.5 196q0 117 -78.5 202t-193.5 85q-57 0 -105.5 -19t-80.5 -48.5t-54 -67.5t-32 -75.5t-10 -71.5q0 -117 77.5 -202.5t199.5 -85.5zM808 375q0 -167 -113 -278t-278 -111q-153 0 -266 112.5t-113 263.5q0 168 112 280t270 112
q163 0 275.5 -111.5t112.5 -267.5zM564 911l43 -63q-56 -46 -109 -46q-19 0 -71.5 13t-69.5 13q-28 0 -70 -22l-47 65q60 39 103 39q18 0 71.5 -13.5t69.5 -13.5q22 0 80 28z" />
    <glyph glyph-name="Odieresis" unicode="&#xd6;" horiz-adv-x="846" 
d="M423 85q124 0 200.5 87t76.5 196q0 117 -78.5 202t-193.5 85q-57 0 -105.5 -19t-80.5 -48.5t-54 -67.5t-32 -75.5t-10 -71.5q0 -117 77.5 -202.5t199.5 -85.5zM808 375q0 -167 -113 -278t-278 -111q-153 0 -266 112.5t-113 263.5q0 168 112 280t270 112
q163 0 275.5 -111.5t112.5 -267.5zM398 802h-104v122h104v-122zM553 802h-104v122h104v-122z" />
    <glyph glyph-name="multiply" unicode="&#xd7;" horiz-adv-x="600" 
d="M467 14l-167 168l-167 -168l-72 72l167 167l-167 167l72 72l167 -167l167 167l72 -72l-168 -167l168 -167z" />
    <glyph glyph-name="Oslash" unicode="&#xd8;" horiz-adv-x="846" 
d="M170 -65l-80 56l71 98q-123 120 -123 287q0 154 112 266t267 112q110 0 193 -47l69 95l83 -58l-71 -97q53 -48 85 -123.5t32 -153.5q0 -160 -114 -272t-264 -112q-110 0 -190 45zM222 173l329 452q-55 30 -129 30q-121 0 -198.5 -86t-77.5 -202q0 -105 76 -194zM629 562
l-328 -451q52 -26 122 -26q115 0 196 81.5t81 198.5q0 111 -71 197z" />
    <glyph glyph-name="Ugrave" unicode="&#xd9;" horiz-adv-x="643" 
d="M461 242v498h108v-506q0 -113 -70.5 -180.5t-177.5 -67.5t-177.5 67.5t-70.5 180.5v506h108v-498q0 -70 37.5 -113.5t102.5 -43.5t102.5 43.5t37.5 113.5zM369 778l-225 123l44 80l223 -128z" />
    <glyph glyph-name="Uacute" unicode="&#xda;" horiz-adv-x="643" 
d="M461 242v498h108v-506q0 -113 -70.5 -180.5t-177.5 -67.5t-177.5 67.5t-70.5 180.5v506h108v-498q0 -70 37.5 -113.5t102.5 -43.5t102.5 43.5t37.5 113.5zM500 899l-225 -122l-42 75l223 128z" />
    <glyph glyph-name="Ucircumflex" unicode="&#xdb;" horiz-adv-x="643" 
d="M461 242v498h108v-506q0 -113 -70.5 -180.5t-177.5 -67.5t-177.5 67.5t-70.5 180.5v506h108v-498q0 -70 37.5 -113.5t102.5 -43.5t102.5 43.5t37.5 113.5zM511 793h-119l-69 69l-72 -69h-120l140 135h100z" />
    <glyph glyph-name="Udieresis" unicode="&#xdc;" horiz-adv-x="643" 
d="M461 242v498h108v-506q0 -113 -70.5 -180.5t-177.5 -67.5t-177.5 67.5t-70.5 180.5v506h108v-498q0 -70 37.5 -113.5t102.5 -43.5t102.5 43.5t37.5 113.5zM296 802h-104v122h104v-122zM451 802h-104v122h104v-122z" />
    <glyph glyph-name="Yacute" unicode="&#xdd;" horiz-adv-x="593" 
d="M351 0h-108v267l-230 473h121l163 -347l162 347h120l-228 -473v-267zM475 899l-225 -122l-42 75l223 128z" />
    <glyph glyph-name="Thorn" unicode="&#xde;" horiz-adv-x="559" 
d="M173 0h-108v740h108v-136h107q122 0 191 -58.5t69 -165.5t-69 -165.5t-191 -58.5h-107v-156zM173 255h106q73 0 113 32.5t40 92.5t-40 92.5t-115 32.5h-104v-250z" />
    <glyph glyph-name="germandbls" unicode="&#xdf;" horiz-adv-x="640" 
d="M169 0h-103v517q0 111 63.5 174t154.5 63q90 0 155 -65t65 -154q0 -77 -58 -120q71 -17 113.5 -71t42.5 -125q0 -99 -66 -166t-165 -67q-72 0 -129 38.5t-71 99.5h-2v-124zM343 333h-70v92q60 1 93.5 32t33.5 84q0 49 -33 83.5t-83 34.5q-54 0 -84 -37.5t-30 -101.5v-326
h84q10 -53 43 -83t79 -30q52 0 87 37.5t35 90.5q0 59 -42 91.5t-113 32.5z" />
    <glyph glyph-name="agrave" unicode="&#xe0;" horiz-adv-x="693" 
d="M331 81q80 0 136.5 58t56.5 137q0 83 -54 140.5t-139 57.5q-78 0 -133.5 -58t-55.5 -140q0 -79 56 -137t133 -58zM626 0h-104v86h-2q-29 -49 -78.5 -74.5t-109.5 -25.5q-122 0 -208 81.5t-86 200.5q0 131 83 216t207 85q129 0 192 -93h2v78h104v-554zM419 612l-225 123
l44 80l223 -128z" />
    <glyph glyph-name="aacute" unicode="&#xe1;" horiz-adv-x="693" 
d="M331 81q80 0 136.5 58t56.5 137q0 83 -54 140.5t-139 57.5q-78 0 -133.5 -58t-55.5 -140q0 -79 56 -137t133 -58zM626 0h-104v86h-2q-29 -49 -78.5 -74.5t-109.5 -25.5q-122 0 -208 81.5t-86 200.5q0 131 83 216t207 85q129 0 192 -93h2v78h104v-554zM500 733l-225 -122
l-42 75l223 128z" />
    <glyph glyph-name="acircumflex" unicode="&#xe2;" horiz-adv-x="693" 
d="M331 81q80 0 136.5 58t56.5 137q0 83 -54 140.5t-139 57.5q-78 0 -133.5 -58t-55.5 -140q0 -79 56 -137t133 -58zM626 0h-104v86h-2q-29 -49 -78.5 -74.5t-109.5 -25.5q-122 0 -208 81.5t-86 200.5q0 131 83 216t207 85q129 0 192 -93h2v78h104v-554zM536 632h-119
l-69 69l-72 -69h-120l140 135h100z" />
    <glyph glyph-name="atilde" unicode="&#xe3;" horiz-adv-x="693" 
d="M331 81q80 0 136.5 58t56.5 137q0 83 -54 140.5t-139 57.5q-78 0 -133.5 -58t-55.5 -140q0 -79 56 -137t133 -58zM626 0h-104v86h-2q-29 -49 -78.5 -74.5t-109.5 -25.5q-122 0 -208 81.5t-86 200.5q0 131 83 216t207 85q129 0 192 -93h2v78h104v-554zM487 745l43 -63
q-56 -46 -109 -46q-19 0 -71.5 13t-69.5 13q-28 0 -70 -22l-47 65q60 39 103 39q18 0 71.5 -13.5t69.5 -13.5q22 0 80 28z" />
    <glyph glyph-name="adieresis" unicode="&#xe4;" horiz-adv-x="693" 
d="M331 81q80 0 136.5 58t56.5 137q0 83 -54 140.5t-139 57.5q-78 0 -133.5 -58t-55.5 -140q0 -79 56 -137t133 -58zM626 0h-104v86h-2q-29 -49 -78.5 -74.5t-109.5 -25.5q-122 0 -208 81.5t-86 200.5q0 131 83 216t207 85q129 0 192 -93h2v78h104v-554zM321 636h-104v122
h104v-122zM476 636h-104v122h104v-122z" />
    <glyph glyph-name="aring" unicode="&#xe5;" horiz-adv-x="693" 
d="M331 81q80 0 136.5 58t56.5 137q0 83 -54 140.5t-139 57.5q-78 0 -133.5 -58t-55.5 -140q0 -79 56 -137t133 -58zM626 0h-104v86h-2q-29 -49 -78.5 -74.5t-109.5 -25.5q-122 0 -208 81.5t-86 200.5q0 131 83 216t207 85q129 0 192 -93h2v78h104v-554zM457 720
q0 -45 -32.5 -77.5t-78.5 -32.5q-45 0 -77.5 32.5t-32.5 77.5q0 47 32.5 79t78.5 32q45 0 77.5 -33t32.5 -78zM399 721q0 23 -16 38t-39 15q-21 0 -36 -16t-15 -37t16 -36.5t37 -15.5t37 15t16 37z" />
    <glyph glyph-name="ae" unicode="&#xe6;" horiz-adv-x="1131" 
d="M1090 233h-462q13 -67 64.5 -109.5t116.5 -42.5q49 0 92.5 25.5t67.5 69.5h107q-31 -87 -104.5 -138.5t-160.5 -51.5q-111 0 -185 79h-2v-65h-95v65q-85 -79 -194 -79q-126 0 -211.5 85.5t-85.5 210.5q0 122 85.5 204.5t207.5 82.5q119 0 196 -80h2v65h95v-65h2
q61 80 194 80q108 0 190.5 -85t82.5 -198q0 -18 -3 -53zM330 81q83 0 138.5 57.5t55.5 140.5t-55.5 139t-139.5 56q-80 0 -133.5 -55.5t-53.5 -137.5q0 -85 53.5 -142.5t134.5 -57.5zM628 305h361q-6 76 -55.5 122.5t-124.5 46.5q-72 0 -123 -46.5t-58 -122.5z" />
    <glyph glyph-name="ccedilla" unicode="&#xe7;" horiz-adv-x="627" 
d="M282 -129l-34 32l29 87q-106 16 -172.5 97t-66.5 189q0 125 81.5 209t201.5 84q96 0 173 -55t101 -144h-115q-50 104 -156 104q-81 0 -131.5 -55t-50.5 -141q0 -83 51 -140t129 -57q53 0 94 27t63 75h116q-31 -89 -102 -141.5t-165 -54.5l-17 -55q5 1 17 1
q38 0 61.5 -24.5t23.5 -59.5q0 -41 -28 -68t-70 -27q-37 0 -63 23t-30 59h53q8 -31 41 -31q18 0 30 11.5t12 29.5t-12 28.5t-30 10.5q-20 0 -34 -14z" />
    <glyph glyph-name="egrave" unicode="&#xe8;" horiz-adv-x="642" 
d="M143 312h358q-6 69 -59 115.5t-121 46.5q-66 0 -119 -46.5t-59 -115.5zM602 232h-459q18 -69 68 -110t114 -41q49 0 91.5 24.5t66.5 68.5h104q-32 -86 -104.5 -137t-161.5 -51q-115 0 -198.5 86.5t-83.5 199.5q0 128 83 212.5t196 84.5q122 0 204.5 -82.5t82.5 -202.5
q0 -33 -3 -52zM394 612l-225 123l44 80l223 -128z" />
    <glyph glyph-name="eacute" unicode="&#xe9;" horiz-adv-x="642" 
d="M143 312h358q-6 69 -59 115.5t-121 46.5q-66 0 -119 -46.5t-59 -115.5zM602 232h-459q18 -69 68 -110t114 -41q49 0 91.5 24.5t66.5 68.5h104q-32 -86 -104.5 -137t-161.5 -51q-115 0 -198.5 86.5t-83.5 199.5q0 128 83 212.5t196 84.5q122 0 204.5 -82.5t82.5 -202.5
q0 -33 -3 -52zM475 733l-225 -122l-42 75l223 128z" />
    <glyph glyph-name="ecircumflex" unicode="&#xea;" horiz-adv-x="642" 
d="M143 312h358q-6 69 -59 115.5t-121 46.5q-66 0 -119 -46.5t-59 -115.5zM602 232h-459q18 -69 68 -110t114 -41q49 0 91.5 24.5t66.5 68.5h104q-32 -86 -104.5 -137t-161.5 -51q-115 0 -198.5 86.5t-83.5 199.5q0 128 83 212.5t196 84.5q122 0 204.5 -82.5t82.5 -202.5
q0 -33 -3 -52zM511 632h-119l-69 69l-72 -69h-120l140 135h100z" />
    <glyph glyph-name="edieresis" unicode="&#xeb;" horiz-adv-x="642" 
d="M143 312h358q-6 69 -59 115.5t-121 46.5q-66 0 -119 -46.5t-59 -115.5zM602 232h-459q18 -69 68 -110t114 -41q49 0 91.5 24.5t66.5 68.5h104q-32 -86 -104.5 -137t-161.5 -51q-115 0 -198.5 86.5t-83.5 199.5q0 128 83 212.5t196 84.5q122 0 204.5 -82.5t82.5 -202.5
q0 -33 -3 -52zM296 636h-104v122h104v-122zM451 636h-104v122h104v-122z" />
    <glyph glyph-name="igrave" unicode="&#xec;" horiz-adv-x="238" 
d="M171 0h-104v554h104v-554zM152 612l-225 123l44 80l223 -128z" />
    <glyph glyph-name="iacute" unicode="&#xed;" horiz-adv-x="238" 
d="M171 0h-104v554h104v-554zM313 733l-225 -122l-42 75l223 128z" />
    <glyph glyph-name="icircumflex" unicode="&#xee;" horiz-adv-x="238" 
d="M171 0h-104v554h104v-554zM309 632h-119l-69 69l-72 -69h-120l140 135h100z" />
    <glyph glyph-name="idieresis" unicode="&#xef;" horiz-adv-x="238" 
d="M171 0h-104v554h104v-554zM94 636h-104v122h104v-122zM249 636h-104v122h104v-122z" />
    <glyph glyph-name="eth" unicode="&#xf0;" horiz-adv-x="675" 
d="M432 544l2 2q-41 46 -111 87l-167 -56l-66 51l146 49q-41 17 -109 41l120 39q53 -13 107 -41l124 41l64 -52l-108 -36q96 -68 149 -166.5t53 -204.5q0 -131 -84.5 -220t-215.5 -89t-214.5 89.5t-83.5 206.5q0 115 86.5 201t202.5 86q62 0 105 -28zM338 84q82 0 138 59
t56 141q0 83 -56 138t-141 55q-78 0 -135.5 -58t-57.5 -138q0 -81 58 -139t138 -58z" />
    <glyph glyph-name="ntilde" unicode="&#xf1;" horiz-adv-x="624" 
d="M558 0h-104v302q0 172 -138 172q-68 0 -107 -46.5t-39 -124.5v-303h-104v554h97v-59h2q57 74 162 74q103 0 167 -62.5t64 -174.5v-332zM453 745l43 -63q-56 -46 -109 -46q-19 0 -71.5 13t-69.5 13q-28 0 -70 -22l-47 65q60 39 103 39q18 0 71.5 -13.5t69.5 -13.5
q22 0 80 28z" />
    <glyph glyph-name="ograve" unicode="&#xf2;" horiz-adv-x="675" 
d="M636 273q-2 -115 -88 -201t-215 -86q-118 0 -206.5 86.5t-88.5 202.5q0 126 87.5 210t215.5 84q119 0 207.5 -84t87.5 -212zM532 279q0 81 -57 138t-139 57q-78 0 -136 -58t-58 -138q0 -79 57 -138t135 -59q82 0 140 57.5t58 140.5zM410 612l-225 123l44 80l223 -128z
" />
    <glyph glyph-name="oacute" unicode="&#xf3;" horiz-adv-x="675" 
d="M636 273q-2 -115 -88 -201t-215 -86q-118 0 -206.5 86.5t-88.5 202.5q0 126 87.5 210t215.5 84q119 0 207.5 -84t87.5 -212zM532 279q0 81 -57 138t-139 57q-78 0 -136 -58t-58 -138q0 -79 57 -138t135 -59q82 0 140 57.5t58 140.5zM491 733l-225 -122l-42 75l223 128z
" />
    <glyph glyph-name="ocircumflex" unicode="&#xf4;" horiz-adv-x="675" 
d="M636 273q-2 -115 -88 -201t-215 -86q-118 0 -206.5 86.5t-88.5 202.5q0 126 87.5 210t215.5 84q119 0 207.5 -84t87.5 -212zM532 279q0 81 -57 138t-139 57q-78 0 -136 -58t-58 -138q0 -79 57 -138t135 -59q82 0 140 57.5t58 140.5zM527 632h-119l-69 69l-72 -69h-120
l140 135h100z" />
    <glyph glyph-name="otilde" unicode="&#xf5;" horiz-adv-x="675" 
d="M636 273q-2 -115 -88 -201t-215 -86q-118 0 -206.5 86.5t-88.5 202.5q0 126 87.5 210t215.5 84q119 0 207.5 -84t87.5 -212zM532 279q0 81 -57 138t-139 57q-78 0 -136 -58t-58 -138q0 -79 57 -138t135 -59q82 0 140 57.5t58 140.5zM478 745l43 -63q-56 -46 -109 -46
q-19 0 -71.5 13t-69.5 13q-28 0 -70 -22l-47 65q60 39 103 39q18 0 71.5 -13.5t69.5 -13.5q22 0 80 28z" />
    <glyph glyph-name="odieresis" unicode="&#xf6;" horiz-adv-x="675" 
d="M636 273q-2 -115 -88 -201t-215 -86q-118 0 -206.5 86.5t-88.5 202.5q0 126 87.5 210t215.5 84q119 0 207.5 -84t87.5 -212zM532 279q0 81 -57 138t-139 57q-78 0 -136 -58t-58 -138q0 -79 57 -138t135 -59q82 0 140 57.5t58 140.5zM312 636h-104v122h104v-122zM467 636
h-104v122h104v-122z" />
    <glyph glyph-name="divide" unicode="&#xf7;" horiz-adv-x="600" 
d="M352 398h-104v108h104v-108zM552 201h-504v104h504v-104zM352 0h-104v108h104v-108z" />
    <glyph glyph-name="oslash" unicode="&#xf8;" horiz-adv-x="675" 
d="M166 -69l-79 53l51 77q-100 93 -100 220q0 119 88 203.5t206 84.5q71 0 124 -24l51 78l80 -53l-50 -76q47 -41 73 -97.5t26 -116.5q0 -122 -88.5 -208t-206.5 -86q-70 0 -123 24zM193 145l209 318q-36 11 -66 11q-78 0 -136 -58t-58 -138q0 -76 51 -133zM482 410
l-210 -318q32 -11 65 -11q79 0 137 57t58 136q0 80 -50 136z" />
    <glyph glyph-name="ugrave" unicode="&#xf9;" horiz-adv-x="624" 
d="M557 0h-95v60h-2q-20 -35 -64 -54.5t-99 -19.5q-100 0 -165.5 61.5t-65.5 197.5v309h104v-301q0 -87 33.5 -129.5t104.5 -42.5t108 46t37 128v299h104v-554zM360 612l-225 123l44 80l223 -128z" />
    <glyph glyph-name="uacute" unicode="&#xfa;" horiz-adv-x="624" 
d="M557 0h-95v60h-2q-20 -35 -64 -54.5t-99 -19.5q-100 0 -165.5 61.5t-65.5 197.5v309h104v-301q0 -87 33.5 -129.5t104.5 -42.5t108 46t37 128v299h104v-554zM491 733l-225 -122l-42 75l223 128z" />
    <glyph glyph-name="ucircumflex" unicode="&#xfb;" horiz-adv-x="624" 
d="M557 0h-95v60h-2q-20 -35 -64 -54.5t-99 -19.5q-100 0 -165.5 61.5t-65.5 197.5v309h104v-301q0 -87 33.5 -129.5t104.5 -42.5t108 46t37 128v299h104v-554zM502 632h-119l-69 69l-72 -69h-120l140 135h100z" />
    <glyph glyph-name="udieresis" unicode="&#xfc;" horiz-adv-x="624" 
d="M557 0h-95v60h-2q-20 -35 -64 -54.5t-99 -19.5q-100 0 -165.5 61.5t-65.5 197.5v309h104v-301q0 -87 33.5 -129.5t104.5 -42.5t108 46t37 128v299h104v-554zM287 636h-104v122h104v-122zM442 636h-104v122h104v-122z" />
    <glyph glyph-name="yacute" unicode="&#xfd;" horiz-adv-x="574" 
d="M258 -185h-108l81 196l-221 543h112l163 -430l167 430h112zM466 733l-225 -122l-42 75l223 128z" />
    <glyph glyph-name="thorn" unicode="&#xfe;" horiz-adv-x="686" 
d="M171 -185h-104v925h104v-262h2q63 91 188 91q124 0 205.5 -85.5t81.5 -213.5q0 -118 -81 -201t-199 -83q-64 0 -116 25t-79 69h-2v-265zM357 81q79 0 133 57.5t54 137.5q0 78 -55 138t-136 60q-77 0 -130.5 -58.5t-53.5 -137.5q0 -82 54 -139.5t134 -57.5z" />
    <glyph glyph-name="ydieresis" unicode="&#xff;" horiz-adv-x="574" 
d="M258 -185h-108l81 196l-221 543h112l163 -430l167 430h112zM262 636h-104v122h104v-122zM417 636h-104v122h104v-122z" />
    <glyph glyph-name="dotlessi" unicode="&#x131;" horiz-adv-x="238" 
d="M171 0h-104v554h104v-554z" />
    <glyph glyph-name="Lslash" unicode="&#x141;" horiz-adv-x="444" 
d="M444 0h-365v301l-75 -51v111l75 51v328h108v-254l139 95v-111l-139 -95v-276h257v-99z" />
    <glyph glyph-name="lslash" unicode="&#x142;" horiz-adv-x="284" 
d="M194 0h-104v314l-69 -46v99l69 46v327h104v-257l79 53v-99l-79 -53v-384z" />
    <glyph glyph-name="OE" unicode="&#x152;" horiz-adv-x="1094" 
d="M1048 0h-354v106h-2q-41 -58 -111 -89t-157 -31q-162 0 -274 108t-112 266q0 172 112 283t276 111q81 0 154 -32t112 -90h2v108h354v-99h-246v-218h246v-99h-246v-225h246v-99zM421 85q118 0 196.5 81t78.5 199q0 121 -78.5 205.5t-197.5 84.5q-115 0 -194.5 -84.5
t-79.5 -200.5q0 -123 78.5 -204t196.5 -81z" />
    <glyph glyph-name="oe" unicode="&#x153;" horiz-adv-x="1144" 
d="M1105 234h-469q13 -64 67 -108.5t117 -44.5q114 0 166 95h105q-36 -90 -108 -140t-163 -50q-72 0 -133.5 35.5t-100.5 99.5q-39 -63 -105 -99t-141 -36q-125 0 -213.5 87t-88.5 208q0 123 89.5 205.5t204.5 82.5q79 0 145 -33t108 -97q76 130 234 130q125 0 206.5 -84
t81.5 -207q0 -22 -2 -44zM636 305h367q-8 79 -57.5 123.5t-126.5 44.5q-73 0 -122 -44t-61 -124zM531 279q0 81 -56 138t-136 57q-83 0 -140 -56.5t-57 -139.5q0 -77 55.5 -137t131.5 -60q86 0 144 55t58 143z" />
    <glyph glyph-name="Scaron" unicode="&#x160;" horiz-adv-x="499" 
d="M458 548h-108q0 50 -29 78.5t-75 28.5q-39 0 -69 -30.5t-30 -70.5q0 -38 26 -62.5t81 -42.5q121 -39 170 -91.5t49 -147.5q0 -100 -64 -162t-163 -62t-163 64.5t-65 168.5h108q1 -60 33.5 -97t86.5 -37t86.5 35t32.5 90q0 42 -23 68.5t-80 46.5q-132 45 -177.5 94.5
t-45.5 132.5q0 84 60.5 143t146.5 59q93 0 152 -55.5t60 -150.5zM300 793h-100l-140 142h114l74 -76l77 76h114z" />
    <glyph glyph-name="scaron" unicode="&#x161;" horiz-adv-x="424" 
d="M389 407h-104q-8 67 -71 67q-29 0 -47 -17t-18 -42q0 -22 16.5 -38t33 -22.5t53.5 -17.5q150 -46 150 -174q0 -80 -52 -128.5t-134 -48.5q-80 0 -138 52.5t-58 143.5h104q8 -101 94 -101q36 0 58 21t22 55q0 54 -94 84t-126.5 70t-32.5 95q0 71 51.5 117t122.5 46
q70 0 119 -45t51 -117zM263 632h-100l-140 142h114l74 -76l77 76h114z" />
    <glyph glyph-name="Ydieresis" unicode="&#x178;" horiz-adv-x="593" 
d="M351 0h-108v267l-230 473h121l163 -347l162 347h120l-228 -473v-267zM271 802h-104v122h104v-122zM426 802h-104v122h104v-122z" />
    <glyph glyph-name="Zcaron" unicode="&#x17d;" horiz-adv-x="462" 
d="M459 0h-455v99l321 542h-304v99h425v-99l-319 -542h332v-99zM302 793h-100l-140 142h114l74 -76l77 76h114z" />
    <glyph glyph-name="zcaron" unicode="&#x17e;" horiz-adv-x="407" 
d="M404 0h-401v81l266 378h-240v95h354v-101l-251 -358h272v-95zM274 632h-100l-140 142h114l74 -76l77 76h114z" />
    <glyph glyph-name="florin" unicode="&#x192;" 
d="M15 -151l15 87h21q72 0 102 40.5t47 132.5l69 386h-96l16 95h97q17 117 74 178t140 61q6 0 20 -2l-16 -90q-50 -2 -77 -31.5t-43 -115.5h95l-15 -95h-97l-69 -379q-21 -121 -49 -170q-56 -103 -184 -103q-31 0 -50 6z" />
    <glyph glyph-name="circumflex" unicode="&#x2c6;" 
d="M466 631h-119l-69 69l-72 -69h-120l140 135h100z" />
    <glyph glyph-name="caron" unicode="&#x2c7;" 
d="M485 764l-172 -144h-73l-170 144h109l98 -74l99 74h109z" />
    <glyph glyph-name="uni02C9" unicode="&#x2c9;" 
d="M456 652h-358v83h358v-83z" />
    <glyph glyph-name="breve" unicode="&#x2d8;" 
d="M392 749h85q-10 -57 -66 -89t-134 -32q-76 0 -130 32.5t-69 88.5h85q19 -23 44.5 -33t71.5 -10q39 0 70.5 12t42.5 31z" />
    <glyph glyph-name="dotaccent" unicode="&#x2d9;" 
d="M328 628h-101v135h101v-135z" />
    <glyph glyph-name="ring" unicode="&#x2da;" 
d="M388 701q0 -45 -32.5 -77.5t-78.5 -32.5q-45 0 -77.5 32.5t-32.5 77.5q0 47 32.5 79t78.5 32q45 0 77.5 -33t32.5 -78zM330 702q0 23 -16 38t-39 15q-21 0 -36 -16t-15 -37t16 -36.5t37 -15.5t37 15t16 37z" />
    <glyph glyph-name="ogonek" unicode="&#x2db;" 
d="M370 -131v-60q-37 -15 -73 -15q-50 0 -81 26.5t-31 70.5q0 30 20 55.5t65 53.5h59q-42 -28 -56 -46.5t-14 -38.5q0 -24 17.5 -41t42.5 -17q19 0 51 12z" />
    <glyph glyph-name="tilde" unicode="&#x2dc;" 
d="M416 745l43 -63q-56 -46 -109 -46q-19 0 -71.5 13t-69.5 13q-28 0 -70 -22l-47 65q60 39 103 39q18 0 71.5 -13.5t69.5 -13.5q22 0 80 28z" />
    <glyph glyph-name="hungarumlaut" unicode="&#x2dd;" 
d="M320 744l-173 -138l-52 54l166 146zM516 744l-174 -138l-52 54l166 146z" />
    <glyph glyph-name="uni03A9" unicode="&#x3a9;" horiz-adv-x="836" 
d="M788 0h-284v99q76 31 131 107.5t55 177.5q0 112 -76 191.5t-196 79.5t-196 -79.5t-76 -191.5q0 -101 55.5 -177.5t131.5 -107.5v-99h-285v99h148q-158 105 -158 291q0 149 108.5 256t271.5 107t271.5 -107t108.5 -256q0 -186 -158 -291h148v-99z" />
    <glyph glyph-name="uni03BC" unicode="&#x3bc;" horiz-adv-x="629" 
d="M563 0h-98v79h-3q-23 -44 -64.5 -68.5t-93.5 -24.5q-89 0 -134 54v-225h-104v739h104v-310q0 -163 142 -163q67 0 107 46.5t40 128.5v298h104v-554z" />
    <glyph glyph-name="pi" unicode="&#x3c0;" horiz-adv-x="638" 
d="M610 103v-98q-27 -14 -77 -14t-82 31.5t-32 94.5v342h-215v-459h-104v459h-95v95h613v-95h-95v-307q0 -31 9.5 -44t34.5 -13q11 0 21.5 2t15.5 4z" />
    <glyph glyph-name="endash" unicode="&#x2013;" horiz-adv-x="500" 
d="M465 237h-430v104h430v-104z" />
    <glyph glyph-name="emdash" unicode="&#x2014;" horiz-adv-x="1000" 
d="M965 237h-930v104h930v-104z" />
    <glyph glyph-name="quoteleft" unicode="&#x2018;" horiz-adv-x="277" 
d="M190 490h-104v113q0 115 104 137v-63q-20 -7 -28.5 -20t-8.5 -45h37v-122z" />
    <glyph glyph-name="quoteright" unicode="&#x2019;" horiz-adv-x="277" 
d="M87 490v63q20 7 28.5 20t8.5 45h-37v122h104v-113q0 -116 -104 -137z" />
    <glyph glyph-name="quotesinglbase" unicode="&#x201a;" horiz-adv-x="277" 
d="M87 -128v63q20 7 28.5 20t8.5 45h-37v122h104v-113q0 -116 -104 -137z" />
    <glyph glyph-name="quotedblleft" unicode="&#x201c;" horiz-adv-x="425" 
d="M343 490h-104v113q0 115 104 137v-63q-20 -7 -28.5 -20t-8.5 -45h37v-122zM187 490h-104v113q0 115 104 137v-63q-20 -7 -28.5 -20t-8.5 -45h37v-122z" />
    <glyph glyph-name="quotedblright" unicode="&#x201d;" horiz-adv-x="425" 
d="M238 490v63q20 7 28.5 20t8.5 45h-37v122h104v-113q0 -116 -104 -137zM82 490v63q20 7 28.5 20t8.5 45h-37v122h104v-113q0 -116 -104 -137z" />
    <glyph glyph-name="quotedblbase" unicode="&#x201e;" horiz-adv-x="425" 
d="M238 -128v63q20 7 28.5 20t8.5 45h-37v122h104v-113q0 -116 -104 -137zM82 -128v63q20 7 28.5 20t8.5 45h-37v122h104v-113q0 -116 -104 -137z" />
    <glyph glyph-name="dagger" unicode="&#x2020;" horiz-adv-x="573" 
d="M339 -222h-104v674h-170v95h170v193h104v-193h170v-95h-170v-674z" />
    <glyph glyph-name="daggerdbl" unicode="&#x2021;" horiz-adv-x="573" 
d="M339 -222h-104v252h-170v95h170v358h-170v95h170v162h104v-162h170v-95h-170v-358h170v-95h-170v-252z" />
    <glyph glyph-name="bullet" unicode="&#x2022;" horiz-adv-x="606" 
d="M303 222q-63 0 -108 46t-45 109t45.5 109t108.5 46q62 0 106.5 -46t44.5 -109q0 -64 -45 -109.5t-107 -45.5z" />
    <glyph glyph-name="ellipsis" unicode="&#x2026;" horiz-adv-x="1000" 
d="M219 0h-104v122h104v-122zM552 0h-104v122h104v-122zM885 0h-104v122h104v-122z" />
    <glyph glyph-name="perthousand" unicode="&#x2030;" horiz-adv-x="1228" 
d="M414 572q0 -73 -53.5 -126t-127.5 -53q-73 0 -127 53t-54 126t53.5 126t127.5 53t127.5 -53t53.5 -126zM236 0h-67l424 740h67zM233 479q38 0 64.5 27.5t26.5 65.5q0 39 -26.5 66t-65.5 27q-37 0 -63.5 -27.5t-26.5 -65.5t26.5 -65.5t64.5 -27.5zM784 166
q0 -73 -53.5 -126t-127.5 -53q-73 0 -127 53t-54 126t53.5 126t127.5 53t127.5 -53t53.5 -126zM603 73q38 0 64.5 27.5t26.5 65.5q0 39 -26.5 66t-65.5 27q-37 0 -63.5 -27.5t-26.5 -65.5t26.5 -65.5t64.5 -27.5zM1175 166q0 -73 -53.5 -126t-127.5 -53q-73 0 -127 53
t-54 126t53.5 126t127.5 53t127.5 -53t53.5 -126zM994 73q38 0 64.5 27.5t26.5 65.5q0 39 -26.5 66t-65.5 27q-37 0 -63.5 -27.5t-26.5 -65.5t26.5 -65.5t64.5 -27.5z" />
    <glyph glyph-name="guilsinglleft" unicode="&#x2039;" horiz-adv-x="205" 
d="M171 102l-137 134v103l137 136v-113l-75 -74l75 -74v-112z" />
    <glyph glyph-name="guilsinglright" unicode="&#x203a;" horiz-adv-x="205" 
d="M171 236l-137 -134v112l75 74l-75 74v113l137 -136v-103z" />
    <glyph glyph-name="fraction" unicode="&#x2044;" horiz-adv-x="186" 
d="M-37 0h-73l333 740h73z" />
    <glyph glyph-name="zero.superior" unicode="&#x2070;" horiz-adv-x="369" 
d="M345 723v-156q0 -71 -43 -113t-118 -42q-72 0 -116 43.5t-44 115.5v147q0 69 47.5 113.5t114.5 44.5q68 0 113.5 -43.5t45.5 -109.5zM261 569v156q0 33 -20.5 54t-55.5 21t-56 -21t-21 -54v-157q0 -38 20.5 -59t56.5 -21q35 0 55.5 21.5t20.5 59.5z" />
    <glyph glyph-name="zero.superior" unicode="&#xe1ee;" horiz-adv-x="369" 
d="M345 723v-156q0 -71 -43 -113t-118 -42q-72 0 -116 43.5t-44 115.5v147q0 69 47.5 113.5t114.5 44.5q68 0 113.5 -43.5t45.5 -109.5zM261 569v156q0 33 -20.5 54t-55.5 21t-56 -21t-21 -54v-157q0 -38 20.5 -59t56.5 -21q35 0 55.5 21.5t20.5 59.5z" />
    <glyph glyph-name="four.superior" unicode="&#x2074;" horiz-adv-x="362" 
d="M294 422h-70v69h-206v69l208 306h68v-307h48v-68h-48v-69zM224 559v190h-2l-121 -190h123z" />
    <glyph glyph-name="four.superior" unicode="&#xe1ef;" horiz-adv-x="362" 
d="M294 422h-70v69h-206v69l208 306h68v-307h48v-68h-48v-69zM224 559v190h-2l-121 -190h123z" />
    <glyph glyph-name="five.superior" unicode="&#x2075;" horiz-adv-x="352" 
d="M293 790h-153l-14 -78q22 18 64 18q65 0 105 -43t40 -111q0 -69 -44.5 -116.5t-113.5 -47.5q-62 0 -107 41.5t-52 108.5h80q13 -74 80 -74q35 0 56 23.5t21 59.5q0 37 -21 60.5t-56 23.5q-48 0 -74 -35l-65 15l36 231h218v-76z" />
    <glyph glyph-name="five.superior" unicode="&#xe1f0;" horiz-adv-x="352" 
d="M293 790h-153l-14 -78q22 18 64 18q65 0 105 -43t40 -111q0 -69 -44.5 -116.5t-113.5 -47.5q-62 0 -107 41.5t-52 108.5h80q13 -74 80 -74q35 0 56 23.5t21 59.5q0 37 -21 60.5t-56 23.5q-48 0 -74 -35l-65 15l36 231h218v-76z" />
    <glyph glyph-name="six.superior" unicode="&#x2076;" horiz-adv-x="353" 
d="M169 723l1 -1q9 5 29 5q57 0 98.5 -44.5t41.5 -105.5q0 -71 -45 -118t-114 -47q-65 0 -113 46t-48 110q0 58 30 105l126 193h97zM180 488q34 0 56.5 23.5t22.5 58.5q0 36 -23 60.5t-58 24.5q-34 0 -56.5 -23.5t-22.5 -57.5q0 -37 23 -61.5t58 -24.5z" />
    <glyph glyph-name="six.superior" unicode="&#xe1f1;" horiz-adv-x="353" 
d="M169 723l1 -1q9 5 29 5q57 0 98.5 -44.5t41.5 -105.5q0 -71 -45 -118t-114 -47q-65 0 -113 46t-48 110q0 58 30 105l126 193h97zM180 488q34 0 56.5 23.5t22.5 58.5q0 36 -23 60.5t-58 24.5q-34 0 -56.5 -23.5t-22.5 -57.5q0 -37 23 -61.5t58 -24.5z" />
    <glyph glyph-name="seven.superior" unicode="&#x2077;" horiz-adv-x="312" 
d="M126 422h-89l161 368h-178v76h263v-76z" />
    <glyph glyph-name="seven.superior" unicode="&#xe1f2;" horiz-adv-x="312" 
d="M126 422h-89l161 368h-178v76h263v-76z" />
    <glyph glyph-name="eight.superior" unicode="&#x2078;" horiz-adv-x="334" 
d="M256 666q59 -38 59 -108q0 -60 -43.5 -103t-104.5 -43t-104.5 42t-43.5 102q0 69 56 110q-36 32 -36 82q0 52 37.5 90t91.5 38q52 0 89.5 -37.5t37.5 -89.5q0 -49 -39 -83zM167 699q22 0 35.5 15.5t13.5 39.5q0 20 -13.5 33.5t-35.5 13.5q-21 0 -35 -14.5t-14 -35.5
q0 -22 14 -37t35 -15zM236 554q0 33 -18.5 53t-50.5 20q-30 0 -49.5 -20.5t-19.5 -52.5q0 -28 19 -47.5t49 -19.5t50 19.5t20 47.5z" />
    <glyph glyph-name="eight.superior" unicode="&#xe1f3;" horiz-adv-x="334" 
d="M256 666q59 -38 59 -108q0 -60 -43.5 -103t-104.5 -43t-104.5 42t-43.5 102q0 69 56 110q-36 32 -36 82q0 52 37.5 90t91.5 38q52 0 89.5 -37.5t37.5 -89.5q0 -49 -39 -83zM167 699q22 0 35.5 15.5t13.5 39.5q0 20 -13.5 33.5t-35.5 13.5q-21 0 -35 -14.5t-14 -35.5
q0 -22 14 -37t35 -15zM236 554q0 33 -18.5 53t-50.5 20q-30 0 -49.5 -20.5t-19.5 -52.5q0 -28 19 -47.5t49 -19.5t50 19.5t20 47.5z" />
    <glyph glyph-name="nine.superior" unicode="&#x2079;" horiz-adv-x="353" 
d="M177 633q34 0 56.5 23t22.5 58q0 36 -23 61t-59 25q-33 0 -55.5 -24t-22.5 -58q0 -37 22.5 -61t58.5 -24zM180 422h-97l106 144l-1 1q-12 -6 -28 -6q-62 0 -103 43.5t-41 106.5q0 70 45.5 117.5t113.5 47.5q66 0 113.5 -46t47.5 -110q0 -55 -42 -121z" />
    <glyph glyph-name="nine.superior" unicode="&#xe1f4;" horiz-adv-x="353" 
d="M177 633q34 0 56.5 23t22.5 58q0 36 -23 61t-59 25q-33 0 -55.5 -24t-22.5 -58q0 -37 22.5 -61t58.5 -24zM180 422h-97l106 144l-1 1q-12 -6 -28 -6q-62 0 -103 43.5t-41 106.5q0 70 45.5 117.5t113.5 47.5q66 0 113.5 -46t47.5 -110q0 -55 -42 -121z" />
    <glyph glyph-name="zero.inferior" unicode="&#x2080;" horiz-adv-x="369" 
d="M345 177v-156q0 -71 -43 -113t-118 -42q-72 0 -116 43.5t-44 115.5v147q0 69 47.5 113.5t114.5 44.5q68 0 113.5 -43.5t45.5 -109.5zM261 23v156q0 33 -20.5 54t-55.5 21t-56 -21t-21 -54v-157q0 -38 20.5 -59t56.5 -21q35 0 55.5 21.5t20.5 59.5z" />
    <glyph glyph-name="zero.inferior" unicode="&#xe1f5;" horiz-adv-x="369" 
d="M345 177v-156q0 -71 -43 -113t-118 -42q-72 0 -116 43.5t-44 115.5v147q0 69 47.5 113.5t114.5 44.5q68 0 113.5 -43.5t45.5 -109.5zM261 23v156q0 33 -20.5 54t-55.5 21t-56 -21t-21 -54v-157q0 -38 20.5 -59t56.5 -21q35 0 55.5 21.5t20.5 59.5z" />
    <glyph glyph-name="one.inferior" unicode="&#x2081;" horiz-adv-x="246" 
d="M175 -124h-80v368h-62v76h142v-444z" />
    <glyph glyph-name="one.inferior" unicode="&#xe1f6;" horiz-adv-x="246" 
d="M175 -124h-80v368h-62v76h142v-444z" />
    <glyph glyph-name="two.inferior" unicode="&#x2082;" horiz-adv-x="351" 
d="M317 -124h-290v62l170 172q39 39 39 74q0 30 -18 50t-46 20q-30 0 -49 -20t-19 -53v-17h-80v17q0 63 43 106t102 43q60 0 103.5 -42.5t43.5 -103.5q0 -62 -59 -121l-110 -111h170v-76z" />
    <glyph glyph-name="two.inferior" unicode="&#xe1f7;" horiz-adv-x="351" 
d="M317 -124h-290v62l170 172q39 39 39 74q0 30 -18 50t-46 20q-30 0 -49 -20t-19 -53v-17h-80v17q0 63 43 106t102 43q60 0 103.5 -42.5t43.5 -103.5q0 -62 -59 -121l-110 -111h170v-76z" />
    <glyph glyph-name="three.inferior" unicode="&#x2083;" horiz-adv-x="335" 
d="M162 79h-24v76h21q57 0 57 52q0 22 -13 34.5t-35 12.5q-21 0 -33.5 -14t-13.5 -36h-80q1 55 38 90.5t89 35.5q53 0 90.5 -38t37.5 -91q0 -46 -40 -83q60 -34 60 -108q0 -60 -44.5 -102t-107.5 -42q-60 0 -104 41.5t-44 104.5h80q7 -70 72 -70q30 0 49 19t19 49
q0 31 -20.5 50t-53.5 19z" />
    <glyph glyph-name="three.inferior" unicode="&#xe1f8;" horiz-adv-x="335" 
d="M162 79h-24v76h21q57 0 57 52q0 22 -13 34.5t-35 12.5q-21 0 -33.5 -14t-13.5 -36h-80q1 55 38 90.5t89 35.5q53 0 90.5 -38t37.5 -91q0 -46 -40 -83q60 -34 60 -108q0 -60 -44.5 -102t-107.5 -42q-60 0 -104 41.5t-44 104.5h80q7 -70 72 -70q30 0 49 19t19 49
q0 31 -20.5 50t-53.5 19z" />
    <glyph glyph-name="four.inferior" unicode="&#x2084;" horiz-adv-x="362" 
d="M294 -124h-70v69h-206v69l208 306h68v-307h48v-68h-48v-69zM224 13v190h-2l-121 -190h123z" />
    <glyph glyph-name="four.inferior" unicode="&#xe1f9;" horiz-adv-x="362" 
d="M294 -124h-70v69h-206v69l208 306h68v-307h48v-68h-48v-69zM224 13v190h-2l-121 -190h123z" />
    <glyph glyph-name="five.inferior" unicode="&#x2085;" horiz-adv-x="352" 
d="M293 244h-153l-14 -78q22 18 64 18q65 0 105 -43t40 -111q0 -69 -44.5 -116.5t-113.5 -47.5q-62 0 -107 41.5t-52 108.5h80q13 -74 80 -74q35 0 56 23.5t21 59.5q0 37 -21 60.5t-56 23.5q-48 0 -74 -35l-65 15l36 231h218v-76z" />
    <glyph glyph-name="five.inferior" unicode="&#xe1fa;" horiz-adv-x="352" 
d="M293 244h-153l-14 -78q22 18 64 18q65 0 105 -43t40 -111q0 -69 -44.5 -116.5t-113.5 -47.5q-62 0 -107 41.5t-52 108.5h80q13 -74 80 -74q35 0 56 23.5t21 59.5q0 37 -21 60.5t-56 23.5q-48 0 -74 -35l-65 15l36 231h218v-76z" />
    <glyph glyph-name="six.inferior" unicode="&#x2086;" horiz-adv-x="353" 
d="M169 177l1 -1q9 5 29 5q57 0 98.5 -44.5t41.5 -105.5q0 -71 -45 -118t-114 -47q-65 0 -113 46t-48 110q0 58 30 105l126 193h97zM180 -58q34 0 56.5 23.5t22.5 58.5q0 36 -23 60.5t-58 24.5q-34 0 -56.5 -23.5t-22.5 -57.5q0 -37 23 -61.5t58 -24.5z" />
    <glyph glyph-name="six.inferior" unicode="&#xe1fb;" horiz-adv-x="353" 
d="M169 177l1 -1q9 5 29 5q57 0 98.5 -44.5t41.5 -105.5q0 -71 -45 -118t-114 -47q-65 0 -113 46t-48 110q0 58 30 105l126 193h97zM180 -58q34 0 56.5 23.5t22.5 58.5q0 36 -23 60.5t-58 24.5q-34 0 -56.5 -23.5t-22.5 -57.5q0 -37 23 -61.5t58 -24.5z" />
    <glyph glyph-name="seven.inferior" unicode="&#x2087;" horiz-adv-x="312" 
d="M126 -124h-89l161 368h-178v76h263v-76z" />
    <glyph glyph-name="seven.inferior" unicode="&#xe1fc;" horiz-adv-x="312" 
d="M126 -124h-89l161 368h-178v76h263v-76z" />
    <glyph glyph-name="eight.inferior" unicode="&#x2088;" horiz-adv-x="334" 
d="M256 120q59 -38 59 -108q0 -60 -43.5 -103t-104.5 -43t-104.5 42t-43.5 102q0 69 56 110q-36 32 -36 82q0 52 37.5 90t91.5 38q52 0 89.5 -37.5t37.5 -89.5q0 -49 -39 -83zM167 153q22 0 35.5 15.5t13.5 39.5q0 20 -13.5 33.5t-35.5 13.5q-21 0 -35 -14.5t-14 -35.5
q0 -22 14 -37t35 -15zM236 8q0 33 -18.5 53t-50.5 20q-30 0 -49.5 -20.5t-19.5 -52.5q0 -28 19 -47.5t49 -19.5t50 19.5t20 47.5z" />
    <glyph glyph-name="eight.inferior" unicode="&#xe1fd;" horiz-adv-x="334" 
d="M256 120q59 -38 59 -108q0 -60 -43.5 -103t-104.5 -43t-104.5 42t-43.5 102q0 69 56 110q-36 32 -36 82q0 52 37.5 90t91.5 38q52 0 89.5 -37.5t37.5 -89.5q0 -49 -39 -83zM167 153q22 0 35.5 15.5t13.5 39.5q0 20 -13.5 33.5t-35.5 13.5q-21 0 -35 -14.5t-14 -35.5
q0 -22 14 -37t35 -15zM236 8q0 33 -18.5 53t-50.5 20q-30 0 -49.5 -20.5t-19.5 -52.5q0 -28 19 -47.5t49 -19.5t50 19.5t20 47.5z" />
    <glyph glyph-name="nine.inferior" unicode="&#x2089;" horiz-adv-x="353" 
d="M177 87q34 0 56.5 23t22.5 58q0 36 -23 61t-59 25q-33 0 -55.5 -24t-22.5 -58q0 -37 22.5 -61t58.5 -24zM180 -124h-97l106 144l-1 1q-12 -6 -28 -6q-62 0 -103 43.5t-41 106.5q0 70 45.5 117.5t113.5 47.5q66 0 113.5 -46t47.5 -110q0 -55 -42 -121z" />
    <glyph glyph-name="nine.inferior" unicode="&#xe1fe;" horiz-adv-x="353" 
d="M177 87q34 0 56.5 23t22.5 58q0 36 -23 61t-59 25q-33 0 -55.5 -24t-22.5 -58q0 -37 22.5 -61t58.5 -24zM180 -124h-97l106 144l-1 1q-12 -6 -28 -6q-62 0 -103 43.5t-41 106.5q0 70 45.5 117.5t113.5 47.5q66 0 113.5 -46t47.5 -110q0 -55 -42 -121z" />
    <glyph glyph-name="Euro" unicode="&#x20ac;" 
d="M445 197h99q-7 -102 -63 -156.5t-157 -54.5q-203 0 -233 281h-90l14 76h71l1 65h-86l14 76h77q34 272 235 272q85 0 143.5 -54t70.5 -147h-97q-10 49 -41 77.5t-75 28.5q-110 0 -129 -177h240l-14 -76h-232v-65h221l-14 -76h-201q9 -91 42.5 -138.5t88.5 -47.5
q50 0 78 28t37 88z" />
    <glyph glyph-name="uni20B9" unicode="&#x20b9;" 
d="M442 0h-135l-251 298v86h111q85 0 128.5 30.5t43.5 108.5h-283v76h274q-14 41 -50.5 53t-106.5 12h-117v76h500v-76h-161q32 -22 42 -65h119v-76h-113q0 -110 -65.5 -165.5t-182.5 -55.5h-18z" />
    <glyph glyph-name="uni20BA" unicode="&#x20ba;" 
d="M110 0v280l-87 -46v83l87 46v71l-87 -46v83l87 46v222h104v-166l210 112v-83l-210 -112v-72l210 112v-83l-210 -112v-247q111 0 164 79.5t53 207.5h104q0 -179 -79 -280t-244 -101q-57 0 -102 6z" />
    <glyph glyph-name="uni20BC" unicode="&#x20bc;" horiz-adv-x="780" 
d="M736 0h-104v264q0 115 -42 168.5t-148 60.5v-421h-104v421q-106 -7 -148 -60.5t-42 -168.5v-264h-104v292q0 137 81.5 211.5t212.5 78.5v158h104v-158q131 -4 212.5 -78.5t81.5 -211.5v-292z" />
    <glyph glyph-name="ruble" unicode="&#x20bd;" 
d="M372 141h-143v-141h-103v141h-97v84h97v73h-97v84h97v358h146q121 0 190.5 -58.5t69.5 -165.5q0 -105 -69 -161.5t-190 -56.5h-44v-73h143v-84zM229 382h47q70 0 111 36.5t41 97.5t-41 95.5t-112 34.5h-46v-264z" />
    <glyph glyph-name="litre" unicode="&#x2113;" horiz-adv-x="495" 
d="M378 105l31 -57q-66 -63 -135 -63q-63 0 -97.5 42t-34.5 120v89l-55 -58l-35 48l90 94v222q0 85 36 135.5t101 50.5q50 0 78.5 -32.5t28.5 -82.5q0 -67 -35 -138.5t-113 -159.5v-165q0 -42 15.5 -65.5t45.5 -23.5q38 0 79 44zM238 556v-152q37 43 60.5 98t23.5 100
q0 23 -9.5 37t-25.5 14q-49 0 -49 -97z" />
    <glyph glyph-name="trademark" unicode="&#x2122;" horiz-adv-x="973" 
d="M218 328h-98v333h-120v79h338v-79h-120v-333zM903 328h-98v292h-2l-104 -292h-75l-104 292h-2v-292h-98v412h143l99 -260l98 260h143v-412z" />
    <glyph glyph-name="Omega" unicode="&#x2126;" horiz-adv-x="836" 
d="M788 0h-284v99q76 31 131 107.5t55 177.5q0 112 -76 191.5t-196 79.5t-196 -79.5t-76 -191.5q0 -101 55.5 -177.5t131.5 -107.5v-99h-285v99h148q-158 105 -158 291q0 149 108.5 256t271.5 107t271.5 -107t108.5 -256q0 -186 -158 -291h148v-99z" />
    <glyph glyph-name="estimated" unicode="&#x212e;" horiz-adv-x="662" 
d="M607 288h-444v-198q65 -65 157 -65q132 0 213 131q3 -2 16 -9.5t20 -12.5q-53 -78 -111.5 -112t-137.5 -34q-123 0 -201.5 85t-78.5 215t77.5 215t203.5 85q123 0 201.5 -80.5t84.5 -219.5zM480 325v160q-66 66 -161 66q-92 0 -156 -64v-162h317z" />
    <glyph glyph-name="onethird" unicode="&#x2153;" horiz-adv-x="694" 
d="M158 296h-80v368h-62v76h142v-444zM175 0h-73l333 740h73zM521 203h-24v76h21q57 0 57 52q0 22 -13 34.5t-35 12.5q-21 0 -33.5 -14t-13.5 -36h-80q1 55 38 90.5t89 35.5q53 0 90.5 -38t37.5 -91q0 -46 -40 -83q60 -34 60 -108q0 -60 -44.5 -102t-107.5 -42
q-60 0 -104 41.5t-44 104.5h80q7 -70 72 -70q30 0 49 19t19 49q0 31 -20.5 50t-53.5 19z" />
    <glyph glyph-name="twothirds" unicode="&#x2154;" horiz-adv-x="813" 
d="M318 296h-290v62l170 172q39 39 39 74q0 30 -18 50t-46 20q-30 0 -49 -20t-19 -53v-17h-80v17q0 63 43 106t102 43q60 0 103.5 -42.5t43.5 -103.5q0 -62 -59 -121l-110 -111h170v-76zM295 0h-73l333 740h73zM640 203h-24v76h21q57 0 57 52q0 22 -13 34.5t-35 12.5
q-21 0 -33.5 -14t-13.5 -36h-80q1 55 38 90.5t89 35.5q53 0 90.5 -38t37.5 -91q0 -46 -40 -83q60 -34 60 -108q0 -60 -44.5 -102t-107.5 -42q-60 0 -104 41.5t-44 104.5h80q7 -70 72 -70q30 0 49 19t19 49q0 31 -20.5 50t-53.5 19z" />
    <glyph glyph-name="oneeighth" unicode="&#x215b;" horiz-adv-x="718" 
d="M158 296h-80v368h-62v76h142v-444zM176 0h-73l333 740h73zM640 244q59 -38 59 -108q0 -60 -43.5 -103t-104.5 -43t-104.5 42t-43.5 102q0 69 56 110q-36 32 -36 82q0 52 37.5 90t91.5 38q52 0 89.5 -37.5t37.5 -89.5q0 -49 -39 -83zM551 277q22 0 35.5 15.5t13.5 39.5
q0 20 -13.5 33.5t-35.5 13.5q-21 0 -35 -14.5t-14 -35.5q0 -22 14 -37t35 -15zM620 132q0 33 -18.5 53t-50.5 20q-30 0 -49.5 -20.5t-19.5 -52.5q0 -28 19 -47.5t49 -19.5t50 19.5t20 47.5z" />
    <glyph glyph-name="threeeighths" unicode="&#x215c;" horiz-adv-x="796" 
d="M162 499h-24v76h21q57 0 57 52q0 22 -13 34.5t-35 12.5q-21 0 -33.5 -14t-13.5 -36h-80q1 55 38 90.5t89 35.5q53 0 90.5 -38t37.5 -91q0 -46 -40 -83q60 -34 60 -108q0 -60 -44.5 -102t-107.5 -42q-60 0 -104 41.5t-44 104.5h80q7 -70 72 -70q30 0 49 19t19 49
q0 31 -20.5 50t-53.5 19zM275 0h-73l333 740h73zM718 244q59 -38 59 -108q0 -60 -43.5 -103t-104.5 -43t-104.5 42t-43.5 102q0 69 56 110q-36 32 -36 82q0 52 37.5 90t91.5 38q52 0 89.5 -37.5t37.5 -89.5q0 -49 -39 -83zM629 277q22 0 35.5 15.5t13.5 39.5
q0 20 -13.5 33.5t-35.5 13.5q-21 0 -35 -14.5t-14 -35.5q0 -22 14 -37t35 -15zM698 132q0 33 -18.5 53t-50.5 20q-30 0 -49.5 -20.5t-19.5 -52.5q0 -28 19 -47.5t49 -19.5t50 19.5t20 47.5z" />
    <glyph glyph-name="fiveeighths" unicode="&#x215d;" horiz-adv-x="808" 
d="M293 664h-153l-14 -78q22 18 64 18q65 0 105 -43t40 -111q0 -69 -44.5 -116.5t-113.5 -47.5q-62 0 -107 41.5t-52 108.5h80q13 -74 80 -74q35 0 56 23.5t21 59.5q0 37 -21 60.5t-56 23.5q-48 0 -74 -35l-65 15l36 231h218v-76zM287 0h-73l333 740h73zM730 244
q59 -38 59 -108q0 -60 -43.5 -103t-104.5 -43t-104.5 42t-43.5 102q0 69 56 110q-36 32 -36 82q0 52 37.5 90t91.5 38q52 0 89.5 -37.5t37.5 -89.5q0 -49 -39 -83zM641 277q22 0 35.5 15.5t13.5 39.5q0 20 -13.5 33.5t-35.5 13.5q-21 0 -35 -14.5t-14 -35.5q0 -22 14 -37
t35 -15zM710 132q0 33 -18.5 53t-50.5 20q-30 0 -49.5 -20.5t-19.5 -52.5q0 -28 19 -47.5t49 -19.5t50 19.5t20 47.5z" />
    <glyph glyph-name="seveneighths" unicode="&#x215e;" horiz-adv-x="728" 
d="M126 296h-89l161 368h-178v76h263v-76zM207 0h-73l333 740h73zM650 244q59 -38 59 -108q0 -60 -43.5 -103t-104.5 -43t-104.5 42t-43.5 102q0 69 56 110q-36 32 -36 82q0 52 37.5 90t91.5 38q52 0 89.5 -37.5t37.5 -89.5q0 -49 -39 -83zM561 277q22 0 35.5 15.5
t13.5 39.5q0 20 -13.5 33.5t-35.5 13.5q-21 0 -35 -14.5t-14 -35.5q0 -22 14 -37t35 -15zM630 132q0 33 -18.5 53t-50.5 20q-30 0 -49.5 -20.5t-19.5 -52.5q0 -28 19 -47.5t49 -19.5t50 19.5t20 47.5z" />
    <glyph glyph-name="partialdiff" unicode="&#x2202;" horiz-adv-x="578" 
d="M433 429h2q4 27 4 63q0 76 -34.5 117t-97.5 41q-49 0 -95 -27l-24 71q53 35 134 35q102 0 160.5 -67t58.5 -184q0 -124 -36 -234.5t-107.5 -182.5t-162.5 -72q-86 0 -138.5 54.5t-52.5 141.5q0 135 77 222.5t183 87.5q42 0 77 -17.5t52 -48.5zM422 344q-24 77 -104 77
q-68 0 -119 -72t-51 -170q0 -50 24.5 -79.5t64.5 -29.5q62 0 112 73t73 201z" />
    <glyph glyph-name="Delta" unicode="&#x2206;" horiz-adv-x="724" 
d="M712 0h-699l299 740h101zM554 99l-192 500l-194 -500h386z" />
    <glyph glyph-name="product" unicode="&#x220f;" horiz-adv-x="721" 
d="M642 -230h-106v839h-350v-839h-106v930h562v-930z" />
    <glyph glyph-name="summation" unicode="&#x2211;" horiz-adv-x="633" 
d="M584 -230h-561v53l306 416l-286 402v59h519v-86h-388l265 -372l-282 -386h427v-86z" />
    <glyph glyph-name="minus" unicode="&#x2212;" horiz-adv-x="600" 
d="M552 201h-504v104h504v-104z" />
    <glyph glyph-name="uni2215" unicode="&#x2215;" horiz-adv-x="186" 
d="M-37 0h-73l333 740h73z" />
    <glyph glyph-name="uni2219" unicode="&#x2219;" horiz-adv-x="277" 
d="M184 200h-91v108h91v-108z" />
    <glyph glyph-name="radical" unicode="&#x221a;" horiz-adv-x="542" 
d="M353 -12h-100l-131 323l-54 -34l-34 54l151 96l117 -291l147 593h88z" />
    <glyph glyph-name="infinity" unicode="&#x221e;" horiz-adv-x="786" 
d="M388 217q-75 -99 -174 -99q-75 0 -125 49.5t-50 124.5q0 76 49 125t124 49q98 0 178 -97q31 46 76 71.5t97 25.5q76 0 125.5 -48t49.5 -123q0 -74 -47.5 -125.5t-124.5 -51.5q-104 0 -178 99zM340 293q-55 86 -122 86q-37 0 -59.5 -24t-22.5 -64q0 -38 24 -62t60 -24
q65 0 120 88zM437 293q54 -88 122 -88q37 0 59.5 24.5t22.5 64.5q0 39 -22 62t-61 23q-67 0 -121 -86z" />
    <glyph glyph-name="integral" unicode="&#x222b;" horiz-adv-x="492" 
d="M48 -218l19 77q21 -8 43 -8q77 0 77 90v626q0 85 44 133.5t123 48.5q53 0 79 -14l-22 -75q-19 8 -44 8q-37 0 -56 -24t-19 -67v-625q0 -87 -43 -134.5t-123 -47.5q-52 0 -78 12z" />
    <glyph glyph-name="approxequal" unicode="&#x2248;" horiz-adv-x="600" 
d="M492 501l69 -78q-65 -92 -155 -92q-56 0 -116.5 32t-93.5 32q-47 0 -89 -68l-69 79q36 50 72 71.5t82 21.5q54 0 115 -32t96 -32q47 0 89 66zM492 267l69 -78q-65 -92 -155 -92q-56 0 -116.5 32t-93.5 32q-47 0 -89 -68l-69 79q36 50 72 71.5t82 21.5q54 0 115 -32
t96 -32q47 0 89 66z" />
    <glyph glyph-name="notequal" unicode="&#x2260;" horiz-adv-x="600" 
d="M552 92h-276l-56 -116h-114l56 116h-114v104h165l55 114h-220v104h271l65 133h114l-65 -133h119v-104h-170l-55 -114h225v-104z" />
    <glyph glyph-name="lessequal" unicode="&#x2264;" horiz-adv-x="600" 
d="M552 143l-504 185v96l504 184v-109l-367 -123v-2l367 -123v-108zM552 0h-504v104h504v-104z" />
    <glyph glyph-name="greaterequal" unicode="&#x2265;" horiz-adv-x="600" 
d="M552 328l-504 -185v108l367 123v2l-367 123v109l504 -184v-96zM552 0h-504v104h504v-104z" />
    <glyph glyph-name="lozenge" unicode="&#x25ca;" horiz-adv-x="600" 
d="M345 0h-91l-201 349l201 351h91l202 -350zM299 95l147 255l-146 255l-147 -255z" />
    <glyph glyph-name="A.alt01" unicode="&#xe000;" horiz-adv-x="716" 
d="M641 0h-108v218h-252l-149 -218h-132l508 740h133v-740zM533 317v283h-2l-182 -283h184z" />
    <glyph glyph-name="Aacute.alt01" unicode="&#xe001;" horiz-adv-x="716" 
d="M641 0h-108v218h-252l-149 -218h-132l508 740h133v-740zM533 317v283h-2l-182 -283h184zM730 897l-225 -122l-42 75l223 128z" />
    <glyph glyph-name="Agrave.alt01" unicode="&#xe002;" horiz-adv-x="716" 
d="M641 0h-108v218h-252l-149 -218h-132l508 740h133v-740zM533 317v283h-2l-182 -283h184zM614 774l-225 123l44 80l223 -128z" />
    <glyph glyph-name="Acircumflex.alt01" unicode="&#xe003;" horiz-adv-x="716" 
d="M641 0h-108v218h-252l-149 -218h-132l508 740h133v-740zM533 317v283h-2l-182 -283h184zM780 791h-108l-99 74l-98 -74h-109l172 144h73z" />
    <glyph glyph-name="Adieresis.alt01" unicode="&#xe004;" horiz-adv-x="716" 
d="M641 0h-108v218h-252l-149 -218h-132l508 740h133v-740zM533 317v283h-2l-182 -283h184zM517 793h-101v135h101v-135zM720 793h-101v135h101v-135z" />
    <glyph glyph-name="Atilde.alt01" unicode="&#xe005;" horiz-adv-x="716" 
d="M641 0h-108v218h-252l-149 -218h-132l508 740h133v-740zM533 317v283h-2l-182 -283h184zM724 920l39 -69q-48 -39 -105 -39q-26 0 -84.5 15.5t-82.5 15.5q-43 0 -76 -27l-39 71q45 37 103 37q27 0 84.5 -15t83.5 -15q48 0 77 26z" />
    <glyph glyph-name="Aring.alt01" unicode="&#xe006;" horiz-adv-x="716" 
d="M641 0h-108v218h-252l-149 -218h-132l508 740h133v-740zM533 317v283h-2l-182 -283h184zM684 873q0 -45 -32.5 -77.5t-78.5 -32.5q-45 0 -77.5 32.5t-32.5 77.5q0 47 32.5 79t78.5 32q45 0 77.5 -33t32.5 -78zM626 874q0 23 -16 38t-39 15q-21 0 -36 -16t-15 -37
t16 -36.5t37 -15.5t37 15t16 37z" />
    <glyph glyph-name="A.alt02" unicode="&#xe00a;" horiz-adv-x="716" 
d="M716 0h-132l-149 218h-252v-218h-108v740h133zM367 317l-182 283h-2v-283h184z" />
    <glyph glyph-name="Aacute.alt02" unicode="&#xe00b;" horiz-adv-x="716" 
d="M716 0h-132l-149 218h-252v-218h-108v740h133zM367 317l-182 283h-2v-283h184zM322 893l-225 -122l-42 75l223 128z" />
    <glyph glyph-name="Agrave.alt02" unicode="&#xe00c;" horiz-adv-x="716" 
d="M716 0h-132l-149 218h-252v-218h-108v740h133zM367 317l-182 283h-2v-283h184zM206 777l-225 123l44 80l223 -128z" />
    <glyph glyph-name="Acircumflex.alt02" unicode="&#xe00d;" horiz-adv-x="716" 
d="M716 0h-132l-149 218h-252v-218h-108v740h133zM367 317l-182 283h-2v-283h184zM348 804h-108l-99 74l-98 -74h-109l172 144h73z" />
    <glyph glyph-name="Adieresis.alt02" unicode="&#xe00e;" horiz-adv-x="716" 
d="M716 0h-132l-149 218h-252v-218h-108v740h133zM367 317l-182 283h-2v-283h184zM86 793h-101v135h101v-135zM289 793h-101v135h101v-135z" />
    <glyph glyph-name="Atilde.alt02" unicode="&#xe00f;" horiz-adv-x="716" 
d="M716 0h-132l-149 218h-252v-218h-108v740h133zM367 317l-182 283h-2v-283h184zM294 920l39 -69q-48 -39 -105 -39q-26 0 -84.5 15.5t-82.5 15.5q-43 0 -76 -27l-39 71q45 37 103 37q27 0 84.5 -15t83.5 -15q48 0 77 26z" />
    <glyph glyph-name="Aring.alt02" unicode="&#xe010;" horiz-adv-x="716" 
d="M716 0h-132l-149 218h-252v-218h-108v740h133zM367 317l-182 283h-2v-283h184zM246 873q0 -45 -32.5 -77.5t-78.5 -32.5q-45 0 -77.5 32.5t-32.5 77.5q0 47 32.5 79t78.5 32q45 0 77.5 -33t32.5 -78zM188 874q0 23 -16 38t-39 15q-21 0 -36 -16t-15 -37t16 -36.5
t37 -15.5t37 15t16 37z" />
    <glyph glyph-name="A.alt03" unicode="&#xe014;" horiz-adv-x="861" 
d="M787 0h-108v114h-2q-36 -62 -101.5 -95t-147.5 -33q-167 0 -278.5 114.5t-111.5 263.5q0 167 111.5 278.5t278.5 111.5q165 0 249 -123h2v109h108v-740zM146 369q0 -111 77 -197.5t200 -86.5t197 85t74 198q0 117 -75 202t-194 85q-128 0 -203.5 -86.5t-75.5 -199.5z" />
    <glyph glyph-name="Aacute.alt03" unicode="&#xe015;" horiz-adv-x="861" 
d="M787 0h-108v114h-2q-36 -62 -101.5 -95t-147.5 -33q-167 0 -278.5 114.5t-111.5 263.5q0 167 111.5 278.5t278.5 111.5q165 0 249 -123h2v109h108v-740zM146 369q0 -111 77 -197.5t200 -86.5t197 85t74 198q0 117 -75 202t-194 85q-128 0 -203.5 -86.5t-75.5 -199.5z
M574 912l-225 -122l-42 75l223 128z" />
    <glyph glyph-name="Agrave.alt03" unicode="&#xe016;" horiz-adv-x="861" 
d="M787 0h-108v114h-2q-36 -62 -101.5 -95t-147.5 -33q-167 0 -278.5 114.5t-111.5 263.5q0 167 111.5 278.5t278.5 111.5q165 0 249 -123h2v109h108v-740zM146 369q0 -111 77 -197.5t200 -86.5t197 85t74 198q0 117 -75 202t-194 85q-128 0 -203.5 -86.5t-75.5 -199.5z
M491 779l-225 123l44 80l223 -128z" />
    <glyph glyph-name="Acircumflex.alt03" unicode="&#xe017;" horiz-adv-x="861" 
d="M787 0h-108v114h-2q-36 -62 -101.5 -95t-147.5 -33q-167 0 -278.5 114.5t-111.5 263.5q0 167 111.5 278.5t278.5 111.5q165 0 249 -123h2v109h108v-740zM146 369q0 -111 77 -197.5t200 -86.5t197 85t74 198q0 117 -75 202t-194 85q-128 0 -203.5 -86.5t-75.5 -199.5z
M622 804h-108l-99 74l-98 -74h-109l172 144h73z" />
    <glyph glyph-name="Adieresis.alt03" unicode="&#xe018;" horiz-adv-x="861" 
d="M787 0h-108v114h-2q-36 -62 -101.5 -95t-147.5 -33q-167 0 -278.5 114.5t-111.5 263.5q0 167 111.5 278.5t278.5 111.5q165 0 249 -123h2v109h108v-740zM146 369q0 -111 77 -197.5t200 -86.5t197 85t74 198q0 117 -75 202t-194 85q-128 0 -203.5 -86.5t-75.5 -199.5z
M375 793h-101v135h101v-135zM578 793h-101v135h101v-135z" />
    <glyph glyph-name="Atilde.alt03" unicode="&#xe019;" horiz-adv-x="861" 
d="M787 0h-108v114h-2q-36 -62 -101.5 -95t-147.5 -33q-167 0 -278.5 114.5t-111.5 263.5q0 167 111.5 278.5t278.5 111.5q165 0 249 -123h2v109h108v-740zM146 369q0 -111 77 -197.5t200 -86.5t197 85t74 198q0 117 -75 202t-194 85q-128 0 -203.5 -86.5t-75.5 -199.5z
M566 918l39 -69q-48 -39 -105 -39q-26 0 -84.5 15.5t-82.5 15.5q-43 0 -76 -27l-39 71q45 37 103 37q27 0 84.5 -15t83.5 -15q48 0 77 26z" />
    <glyph glyph-name="Aring.alt03" unicode="&#xe01a;" horiz-adv-x="861" 
d="M787 0h-108v114h-2q-36 -62 -101.5 -95t-147.5 -33q-167 0 -278.5 114.5t-111.5 263.5q0 167 111.5 278.5t278.5 111.5q165 0 249 -123h2v109h108v-740zM146 369q0 -111 77 -197.5t200 -86.5t197 85t74 198q0 117 -75 202t-194 85q-128 0 -203.5 -86.5t-75.5 -199.5z
M531 893q0 -45 -32.5 -77.5t-78.5 -32.5q-45 0 -77.5 32.5t-32.5 77.5q0 47 32.5 79t78.5 32q45 0 77.5 -33t32.5 -78zM473 894q0 23 -16 38t-39 15q-21 0 -36 -16t-15 -37t16 -36.5t37 -15.5t37 15t16 37z" />
    <glyph glyph-name="C.alt01" unicode="&#xe01e;" horiz-adv-x="601" 
d="M547 121v-113q-12 -7 -55.5 -14.5t-78.5 -7.5q-111 0 -198 54t-132 141t-45 189q0 161 108.5 272.5t272.5 111.5q65 0 128 -22v-111q-51 34 -130 34q-119 0 -195 -81.5t-76 -201.5q0 -122 77.5 -204.5t195.5 -82.5q66 0 128 36z" />
    <glyph glyph-name="Ccedilla.alt01" unicode="&#xe01f;" horiz-adv-x="601" 
d="M323 -129l-34 32l31 94q-116 24 -199 127t-83 246q0 159 107 271.5t268 112.5q73 0 134 -22v-111q-53 34 -130 34q-119 0 -195 -82t-76 -201q0 -122 77.5 -204.5t195.5 -82.5q66 0 128 36v-113q-16 -8 -56.5 -15t-78.5 -7q-9 0 -43 2l-17 -56q4 1 17 1q38 0 61.5 -24
t23.5 -60q0 -40 -27.5 -67.5t-70.5 -27.5q-37 0 -63.5 23t-29.5 59h53q11 -31 41 -31q18 0 30 11t12 30q0 18 -12 28.5t-30 10.5q-17 0 -34 -14z" />
    <glyph glyph-name="E.alt01" unicode="&#xe024;" horiz-adv-x="590" 
d="M547 121v-113q-11 -7 -54 -14.5t-76 -7.5q-165 0 -272 112.5t-107 274.5t107.5 271.5t265.5 109.5q75 0 136 -22v-111q-53 34 -133 34q-102 0 -173.5 -62t-90.5 -170h388v-99h-388q18 -108 92.5 -173.5t176.5 -65.5q66 0 128 36z" />
    <glyph glyph-name="Eacute.alt01" unicode="&#xe025;" horiz-adv-x="590" 
d="M547 121v-113q-11 -7 -54 -14.5t-76 -7.5q-165 0 -272 112.5t-107 274.5t107.5 271.5t265.5 109.5q75 0 136 -22v-111q-53 34 -133 34q-102 0 -173.5 -62t-90.5 -170h388v-99h-388q18 -108 92.5 -173.5t176.5 -65.5q66 0 128 36zM536 909l-225 -122l-42 75l223 128z" />
    <glyph glyph-name="Egrave.alt01" unicode="&#xe026;" horiz-adv-x="590" 
d="M547 121v-113q-11 -7 -54 -14.5t-76 -7.5q-165 0 -272 112.5t-107 274.5t107.5 271.5t265.5 109.5q75 0 136 -22v-111q-53 34 -133 34q-102 0 -173.5 -62t-90.5 -170h388v-99h-388q18 -108 92.5 -173.5t176.5 -65.5q66 0 128 36zM438 793l-225 123l44 80l223 -128z" />
    <glyph glyph-name="Ecircumflex.alt01" unicode="&#xe027;" horiz-adv-x="590" 
d="M547 121v-113q-11 -7 -54 -14.5t-76 -7.5q-165 0 -272 112.5t-107 274.5t107.5 271.5t265.5 109.5q75 0 136 -22v-111q-53 34 -133 34q-102 0 -173.5 -62t-90.5 -170h388v-99h-388q18 -108 92.5 -173.5t176.5 -65.5q66 0 128 36zM568 794h-108l-99 74l-98 -74h-109
l172 144h73z" />
    <glyph glyph-name="Edieresis.alt01" unicode="&#xe028;" horiz-adv-x="590" 
d="M547 121v-113q-11 -7 -54 -14.5t-76 -7.5q-165 0 -272 112.5t-107 274.5t107.5 271.5t265.5 109.5q75 0 136 -22v-111q-53 34 -133 34q-102 0 -173.5 -62t-90.5 -170h388v-99h-388q18 -108 92.5 -173.5t176.5 -65.5q66 0 128 36zM317 797h-101v135h101v-135zM520 797
h-101v135h101v-135z" />
    <glyph glyph-name="E.alt02" unicode="&#xe02e;" horiz-adv-x="846" 
d="M804 316h-653q22 -105 95.5 -168t176.5 -63q166 0 244 148h116q-46 -115 -143.5 -181t-216.5 -66q-160 0 -272.5 112.5t-112.5 271.5q0 162 114 273t271 111q160 0 272.5 -112t112.5 -267q0 -41 -4 -59zM150 415h546q-20 107 -94 173.5t-180 66.5q-103 0 -178 -65.5
t-94 -174.5z" />
    <glyph glyph-name="Eacute.alt02" unicode="&#xe02f;" horiz-adv-x="846" 
d="M804 316h-653q22 -105 95.5 -168t176.5 -63q166 0 244 148h116q-46 -115 -143.5 -181t-216.5 -66q-160 0 -272.5 112.5t-112.5 271.5q0 162 114 273t271 111q160 0 272.5 -112t112.5 -267q0 -41 -4 -59zM150 415h546q-20 107 -94 173.5t-180 66.5q-103 0 -178 -65.5
t-94 -174.5zM580 900l-225 -122l-42 75l223 128z" />
    <glyph glyph-name="Egrave.alt02" unicode="&#xe030;" horiz-adv-x="846" 
d="M804 316h-653q22 -105 95.5 -168t176.5 -63q166 0 244 148h116q-46 -115 -143.5 -181t-216.5 -66q-160 0 -272.5 112.5t-112.5 271.5q0 162 114 273t271 111q160 0 272.5 -112t112.5 -267q0 -41 -4 -59zM150 415h546q-20 107 -94 173.5t-180 66.5q-103 0 -178 -65.5
t-94 -174.5zM477 777l-225 123l44 80l223 -128z" />
    <glyph glyph-name="Ecircumflex.alt02" unicode="&#xe031;" horiz-adv-x="846" 
d="M804 316h-653q22 -105 95.5 -168t176.5 -63q166 0 244 148h116q-46 -115 -143.5 -181t-216.5 -66q-160 0 -272.5 112.5t-112.5 271.5q0 162 114 273t271 111q160 0 272.5 -112t112.5 -267q0 -41 -4 -59zM150 415h546q-20 107 -94 173.5t-180 66.5q-103 0 -178 -65.5
t-94 -174.5zM619 794h-108l-99 74l-98 -74h-109l172 144h73z" />
    <glyph glyph-name="Edieresis.alt02" unicode="&#xe032;" horiz-adv-x="846" 
d="M804 316h-653q22 -105 95.5 -168t176.5 -63q166 0 244 148h116q-46 -115 -143.5 -181t-216.5 -66q-160 0 -272.5 112.5t-112.5 271.5q0 162 114 273t271 111q160 0 272.5 -112t112.5 -267q0 -41 -4 -59zM150 415h546q-20 107 -94 173.5t-180 66.5q-103 0 -178 -65.5
t-94 -174.5zM368 793h-101v135h101v-135zM571 793h-101v135h101v-135z" />
    <glyph glyph-name="K.alt01" unicode="&#xe038;" horiz-adv-x="602" 
d="M598 0h-132l-209 291l-74 -98v-193h-108v740h108v-386h2l282 386h131l-275 -364z" />
    <glyph glyph-name="K.alt02" unicode="&#xe03a;" horiz-adv-x="603" 
d="M183 0h-108v740h108v-740zM599 0h-133l-281 373l281 367h133l-289 -367z" />
    <glyph glyph-name="M.alt01" unicode="&#xe03c;" horiz-adv-x="1219" 
d="M1145 0h-108v571h-2l-408 -571h-80v571h-2l-408 -571h-137l543 740h112v-513h2l376 513h112v-740z" />
    <glyph glyph-name="M.alt02" unicode="&#xe03d;" horiz-adv-x="1220" 
d="M1220 0h-137l-408 571h-2v-571h-80l-408 571h-2v-571h-108v740h112l376 -513h2v513h112z" />
    <glyph glyph-name="M.alt03" unicode="&#xe03e;" horiz-adv-x="1144" 
d="M1077 0h-108v429q0 119 -38.5 172.5t-122.5 53.5q-82 0 -130 -61t-48 -168v-426h-108v427q0 120 -38.5 174t-122.5 54q-83 0 -130.5 -61t-47.5 -164v-430h-108v740h107v-81h3q61 95 191 95q139 0 207 -118h3q42 64 96 91t130 27q127 0 196 -82.5t69 -227.5v-444z" />
    <glyph glyph-name="N.alt01" unicode="&#xe03f;" horiz-adv-x="731" 
d="M664 0h-108v431q0 109 -45.5 166.5t-132.5 57.5q-85 0 -140 -63t-55 -164v-428h-108v740h107v-81h3q56 95 208 95q117 0 194 -76.5t77 -230.5v-447z" />
    <glyph glyph-name="Ntilde.alt01" unicode="&#xe040;" horiz-adv-x="731" 
d="M664 0h-108v431q0 109 -45.5 166.5t-132.5 57.5q-85 0 -140 -63t-55 -164v-428h-108v740h107v-81h3q56 95 208 95q117 0 194 -76.5t77 -230.5v-447zM515 918l39 -69q-48 -39 -105 -39q-26 0 -84.5 15.5t-82.5 15.5q-43 0 -76 -27l-39 71q45 37 103 37q27 0 84.5 -15
t83.5 -15q48 0 77 26z" />
    <glyph glyph-name="U.alt01" unicode="&#xe044;" horiz-adv-x="730" 
d="M663 0h-107v81h-3q-58 -95 -207 -95q-119 0 -195.5 78t-76.5 231v445h108v-431q0 -108 44.5 -166t133.5 -58q87 0 141 63t54 163v429h108v-740z" />
    <glyph glyph-name="Uacute.alt01" unicode="&#xe045;" horiz-adv-x="730" 
d="M663 0h-107v81h-3q-58 -95 -207 -95q-119 0 -195.5 78t-76.5 231v445h108v-431q0 -108 44.5 -166t133.5 -58q87 0 141 63t54 163v429h108v-740zM542 894l-225 -122l-42 75l223 128z" />
    <glyph glyph-name="Ugrave.alt01" unicode="&#xe046;" horiz-adv-x="730" 
d="M663 0h-107v81h-3q-58 -95 -207 -95q-119 0 -195.5 78t-76.5 231v445h108v-431q0 -108 44.5 -166t133.5 -58q87 0 141 63t54 163v429h108v-740zM408 768l-225 123l44 80l223 -128z" />
    <glyph glyph-name="Ucircumflex.alt01" unicode="&#xe047;" horiz-adv-x="730" 
d="M663 0h-107v81h-3q-58 -95 -207 -95q-119 0 -195.5 78t-76.5 231v445h108v-431q0 -108 44.5 -166t133.5 -58q87 0 141 63t54 163v429h108v-740zM569 804h-108l-99 74l-98 -74h-109l172 144h73z" />
    <glyph glyph-name="Udieresis.alt01" unicode="&#xe048;" horiz-adv-x="730" 
d="M663 0h-107v81h-3q-58 -95 -207 -95q-119 0 -195.5 78t-76.5 231v445h108v-431q0 -108 44.5 -166t133.5 -58q87 0 141 63t54 163v429h108v-740zM322 793h-101v135h101v-135zM525 793h-101v135h101v-135z" />
    <glyph glyph-name="V.alt02" unicode="&#xe04f;" horiz-adv-x="654" 
d="M201 0h-126v740h108v-585h2l396 585h136z" />
    <glyph glyph-name="V.alt01" unicode="&#xe050;" horiz-adv-x="653" 
d="M579 0h-126l-516 740h136l396 -585h2v585h108v-740z" />
    <glyph glyph-name="W.alt02" unicode="&#xe051;" horiz-adv-x="1135" 
d="M682 0h-126v521h-2l-353 -521h-126v740h108v-585h2l396 585h83v-585h2l396 585h136z" />
    <glyph glyph-name="W.alt01" unicode="&#xe056;" horiz-adv-x="1134" 
d="M1060 0h-126l-353 521h-2v-521h-126l-516 740h136l396 -585h2v585h83l396 -585h2v585h108v-740z" />
    <glyph glyph-name="c.alt01" unicode="&#xe05b;" horiz-adv-x="489" 
d="M423 103v-100q-28 -17 -104 -17q-126 0 -203.5 84t-77.5 208q0 126 78 208.5t203 82.5q66 0 104 -18v-102q-33 25 -103 25q-79 0 -128.5 -56t-49.5 -140q0 -88 50 -142.5t136 -54.5q59 0 95 22z" />
    <glyph glyph-name="ccedilla.alt01" unicode="&#xe05c;" horiz-adv-x="489" 
d="M262 -129l-34 32l29 89q-101 21 -160 100.5t-59 185.5q0 126 78 208.5t203 82.5q66 0 104 -18v-102q-33 25 -103 25q-79 0 -128.5 -56t-49.5 -140q0 -88 50 -142.5t136 -54.5q59 0 95 22v-100q-28 -17 -115 -17l-17 -54q4 1 17 1q38 0 61.5 -24.5t23.5 -59.5
q0 -40 -27.5 -67.5t-70.5 -27.5q-37 0 -63.5 23t-29.5 59h53q11 -31 41 -31q18 0 30 11t12 30q0 18 -12 28.5t-31 10.5q-18 0 -33 -14z" />
    <glyph glyph-name="e.alt01" unicode="&#xe061;" horiz-adv-x="593" 
d="M485 155v-117q-65 -52 -172 -52q-118 0 -196 83t-78 209t81 208.5t197 82.5q82 0 149.5 -40.5t107.5 -112.5l-354 -301q49 -34 105 -34q97 0 160 74zM161 183l284 242q-49 49 -124 49t-126.5 -54t-51.5 -138q0 -55 18 -99z" />
    <glyph glyph-name="eacute.alt01" unicode="&#xe062;" horiz-adv-x="593" 
d="M485 155v-117q-65 -52 -172 -52q-118 0 -196 83t-78 209t81 208.5t197 82.5q82 0 149.5 -40.5t107.5 -112.5l-354 -301q49 -34 105 -34q97 0 160 74zM161 183l284 242q-49 49 -124 49t-126.5 -54t-51.5 -138q0 -55 18 -99zM456 724l-225 -122l-42 75l223 128z" />
    <glyph glyph-name="egrave.alt01" unicode="&#xe063;" horiz-adv-x="593" 
d="M485 155v-117q-65 -52 -172 -52q-118 0 -196 83t-78 209t81 208.5t197 82.5q82 0 149.5 -40.5t107.5 -112.5l-354 -301q49 -34 105 -34q97 0 160 74zM161 183l284 242q-49 49 -124 49t-126.5 -54t-51.5 -138q0 -55 18 -99zM357 598l-225 123l44 80l223 -128z" />
    <glyph glyph-name="ecircumflex.alt01" unicode="&#xe064;" horiz-adv-x="593" 
d="M485 155v-117q-65 -52 -172 -52q-118 0 -196 83t-78 209t81 208.5t197 82.5q82 0 149.5 -40.5t107.5 -112.5l-354 -301q49 -34 105 -34q97 0 160 74zM161 183l284 242q-49 49 -124 49t-126.5 -54t-51.5 -138q0 -55 18 -99zM511 626h-108l-99 74l-98 -74h-109l172 144h73z
" />
    <glyph glyph-name="edieresis.alt01" unicode="&#xe065;" horiz-adv-x="593" 
d="M485 155v-117q-65 -52 -172 -52q-118 0 -196 83t-78 209t81 208.5t197 82.5q82 0 149.5 -40.5t107.5 -112.5l-354 -301q49 -34 105 -34q97 0 160 74zM161 183l284 242q-49 49 -124 49t-126.5 -54t-51.5 -138q0 -55 18 -99zM245 628h-101v135h101v-135zM448 628h-101v135
h101v-135z" />
    <glyph glyph-name="f.alt01" unicode="&#xe06b;" horiz-adv-x="241" 
d="M174 0h-104v459h-49v95h49v25q0 72 47 116.5t130 44.5h24v-95q-97 0 -97 -66v-579z" />
    <glyph glyph-name="f.alt02" unicode="&#xe06c;" horiz-adv-x="274" 
d="M171 0h-104v579q0 72 47 116.5t130 44.5h24v-95q-97 0 -97 -66v-25h97v-95h-97v-459z" />
    <glyph glyph-name="k.alt01" unicode="&#xe06d;" horiz-adv-x="570" 
d="M559 0h-129l-164 211l-85 -109v-102h-104v740h104v-491h2l221 305h122l-199 -263z" />
    <glyph glyph-name="k.alt02" unicode="&#xe06f;" horiz-adv-x="546" 
d="M181 0h-104v740h104v-740zM535 0h-130l-222 287l197 267h123l-201 -261z" />
    <glyph glyph-name="t.alt01" unicode="&#xe071;" horiz-adv-x="250" 
d="M183 0h-104v459h-75v95h75v186h104v-740z" />
    <glyph glyph-name="t.alt02" unicode="&#xe075;" horiz-adv-x="265" 
d="M171 0h-104v740h104v-186h91v-95h-91v-459z" />
    <glyph glyph-name="v.alt02" unicode="&#xe079;" horiz-adv-x="516" 
d="M177 0h-110v554h104v-386h2l263 386h123z" />
    <glyph glyph-name="v.alt01" unicode="&#xe07a;" horiz-adv-x="516" 
d="M449 0h-110l-382 554h123l263 -386h2v386h104v-554z" />
    <glyph glyph-name="w.alt02" unicode="&#xe07b;" horiz-adv-x="873" 
d="M534 0h-110v355l-247 -355h-110v554h104v-396h2l270 396h85v-386h2l263 386h123z" />
    <glyph glyph-name="w.alt01" unicode="&#xe080;" horiz-adv-x="873" 
d="M806 0h-110l-247 355v-355h-110l-382 554h123l263 -386h2v386h85l270 -396h2v396h104v-554z" />
    <glyph glyph-name="y.alt01" unicode="&#xe085;" horiz-adv-x="547" 
d="M72 -185h-123l118 167v572h104v-424h5l291 424h123z" />
    <glyph glyph-name="yacute.alt01" unicode="&#xe086;" horiz-adv-x="547" 
d="M72 -185h-123l118 167v572h104v-424h5l291 424h123zM505 728l-225 -122l-42 75l223 128z" />
    <glyph glyph-name="ydieresis.alt01" unicode="&#xe087;" horiz-adv-x="547" 
d="M72 -185h-123l118 167v572h104v-424h5l291 424h123zM258 628h-101v135h101v-135zM461 628h-101v135h101v-135z" />
    <glyph glyph-name="C_A" unicode="&#xe08a;" horiz-adv-x="1021" 
d="M947 0h-108v274h-214l-122 -179q95 23 178 133h120q-120 -242 -378 -242q-167 0 -276 116.5t-109 276.5q0 152 112 263.5t262 111.5q172 0 281 -99l-61 -85q-52 47 -100.5 66t-110.5 19q-114 0 -194.5 -83t-80.5 -200q0 -100 62.5 -182t159.5 -100l446 650h133v-740z
M839 373v227h-2l-146 -227h148z" />
    <glyph glyph-name="C_O.alt01" unicode="&#xe0a1;" horiz-adv-x="782" 
d="M417 210q60 0 101.5 46.5t41.5 111.5t-42 112t-102 47q-61 0 -101 -45.5t-40 -112.5t40 -113t102 -46zM421 104q-105 0 -180 76.5t-75 184.5q0 113 73 191.5t178 78.5q103 0 177.5 -77.5t74.5 -182.5q0 -116 -73 -193.5t-175 -77.5zM621 183h133q-51 -92 -141.5 -144.5
t-194.5 -52.5q-158 0 -269 115.5t-111 271.5q0 158 112 269.5t269 111.5q106 0 198 -54t142 -149h-130q-87 104 -211 104q-111 0 -191.5 -83.5t-80.5 -196.5q0 -124 78.5 -207.5t188.5 -83.5q69 0 124 27.5t84 71.5z" />
    <glyph glyph-name="C_O" unicode="&#xe0a2;" horiz-adv-x="1198" 
d="M506 95q-116 116 -116 275q0 160 116 276q-45 9 -86 9q-110 0 -192 -81.5t-82 -195.5q0 -123 80 -208t193 -85q51 0 87 10zM657 205h125q-30 -61 -80 -111q34 -9 73 -9q83 0 148 43t97 106t32 131q0 123 -79.5 206.5t-198.5 83.5q-41 0 -72 -9q58 -58 81 -115h-124
q-35 46 -57 64q-47 -38 -75.5 -99.5t-28.5 -125.5q0 -63 28.5 -124.5t76.5 -101.5q35 31 54 61zM603 26q-88 -40 -185 -40q-105 0 -193 54.5t-137.5 143.5t-49.5 189q0 158 112 269.5t268 111.5q106 0 187 -39q80 39 170 39q158 0 271.5 -111t113.5 -270
q0 -164 -112.5 -275.5t-272.5 -111.5q-89 0 -172 40z" />
    <glyph glyph-name="D_E" unicode="&#xe0ba;" horiz-adv-x="1028" 
d="M972 0h-399v92h-2q-100 -92 -265 -92h-241v740h246q169 0 260 -97h2v97h399v-99h-291v-218h291v-99h-291v-225h291v-99zM173 99h123q132 0 205.5 71t73.5 198q0 123 -76 198t-192 75h-134v-542z" />
    <glyph glyph-name="D_I" unicode="&#xe0c8;" horiz-adv-x="755" 
d="M681 0h-108v90h-2q-104 -90 -265 -90h-241v740h246q164 0 260 -95h2v95h108v-740zM173 99h129q128 0 200.5 71t72.5 198q0 121 -76 197t-189 76h-137v-542z" />
    <glyph glyph-name="E_A" unicode="&#xe0d5;" horiz-adv-x="933" 
d="M869 0h-108v218h-252l-81 -119h124v-99h-477v740h371v-99h-263v-218h263v-99h-263v-225h113l440 641h133v-740zM761 317v283h-2l-182 -283h184z" />
    <glyph glyph-name="F_A" unicode="&#xe0de;" horiz-adv-x="920" 
d="M856 0h-108v260h-223l-178 -260h-132l178 260h-210v-260h-108v740h374v-99h-266v-282h278l262 381h133v-740zM748 359v241h-2l-155 -241h157z" />
    <glyph glyph-name="F_R" unicode="&#xe0e7;" horiz-adv-x="696" 
d="M628 0h-128l-179 241v-241h-108v332h-40v-332h-108v740h374v-99h-266v-221h40v181h198q120 0 186.5 -64.5t66.5 -156.5q0 -84 -46 -138t-129 -68zM434 332h-113v-85h81q75 0 116 33t41 96q0 53 -41.5 89.5t-106.5 36.5h-90v-82h113v-88z" />
    <glyph glyph-name="G_A" unicode="&#xe0e9;" horiz-adv-x="1010" 
d="M838 359v241h-2l-154 -241h156zM704 260h-90l-114 -168q152 35 204 168zM946 0h-108v313h-4q-33 -157 -138.5 -242t-265.5 -85q-176 0 -284 114.5t-108 274.5q0 155 110 267t262 112q177 0 293 -106l-61 -85q-42 42 -101 67t-121 25q-113 0 -193.5 -82.5t-80.5 -200.5
q0 -100 61 -179t161 -102l116 169h-153v99h221l261 381h133v-740z" />
    <glyph glyph-name="G_O" unicode="&#xe0fc;" horiz-adv-x="1198" 
d="M748 554h-126q-21 23 -31 31q-91 -88 -93 -217h301q-5 -165 -110 -270q41 -13 86 -13q65 0 119.5 26t88 67.5t51.5 90t18 95.5q0 123 -79 207t-200 84q-44 0 -89 -14q39 -40 64 -87zM676 269h-160q26 -71 79 -118q51 41 81 118zM595 30q-86 -44 -178 -44
q-160 0 -269.5 113t-109.5 269q0 159 109.5 272.5t265.5 113.5q93 0 180 -45q82 45 182 45q161 0 273 -112.5t112 -267.5q0 -162 -112 -275t-268 -113q-104 0 -185 44zM404 269h-73v99h59q0 160 111 273q-36 14 -82 14q-114 0 -193.5 -85.5t-79.5 -206.5q0 -113 83.5 -195.5
t185.5 -82.5q48 0 88 13q-74 75 -99 171z" />
    <glyph glyph-name="H_T" unicode="&#xe10c;" horiz-adv-x="895" 
d="M596 0h-108v322h-305v-322h-108v740h108v-319h305v220h-157v99h265v-740zM734 0h-108v740h261v-99h-153v-641z" />
    <glyph glyph-name="I_C" unicode="&#xe10e;" horiz-adv-x="819" 
d="M658 183h133q-52 -92 -141.5 -144.5t-194.5 -52.5q-78 0 -149 31t-121 87h-2v-104h-108v740h108v-101h2q45 53 118.5 84t152.5 31q106 0 199 -54.5t141 -148.5h-130q-87 104 -207 104q-111 0 -193.5 -81t-82.5 -195q0 -123 80.5 -208.5t189.5 -85.5q123 0 205 98z" />
    <glyph glyph-name="K_A" unicode="&#xe124;" horiz-adv-x="891" 
d="M183 0h-108v740h108v-740zM827 0h-108v218h-252l-17 -25l149 -193h-133l-78 103l-70 -103h-132l133 194l-134 179l248 367h133l-256 -367l70 -90l314 457h133v-740zM719 317v283h-2l-182 -283h184z" />
    <glyph glyph-name="L_A" unicode="&#xe130;" horiz-adv-x="761" 
d="M687 0h-108v218h-252l-81 -119h192v-99h-363v740h108v-539h3l368 539h133v-740zM579 317v283h-2l-182 -283h184z" />
    <glyph glyph-name="L_A.alt01" unicode="&#xe141;" horiz-adv-x="833" 
d="M759 0h-108v218h-252l-81 -119h162v-99h-405v740h108v-641h3l440 641h133v-740zM651 317v283h-2l-182 -283h184z" />
    <glyph glyph-name="L_L" unicode="&#xe152;" horiz-adv-x="470" 
d="M440 0h-365v740h108v-641h257v-99zM440 119h-237v621h108v-522h129v-99z" />
    <glyph glyph-name="N_T" unicode="&#xe153;" horiz-adv-x="962" 
d="M663 0h-112l-366 572h-2v-572h-108v740h118l360 -563h2v464h-157v99h265v-740zM801 0h-108v740h261v-99h-153v-641z" />
    <glyph glyph-name="O_C" unicode="&#xe15b;" horiz-adv-x="1134" 
d="M505 96q-55 55 -85 127.5t-30 149.5q0 161 113 271q-38 11 -81 11q-78 0 -140 -37q-60 -36 -98 -105.5t-38 -139.5q0 -117 77 -202.5t200 -85.5q44 0 82 11zM599 592q-101 -85 -101 -220q0 -63 27.5 -122.5t75.5 -100.5q46 41 72.5 100.5t26.5 117.5q0 63 -26.5 123
t-74.5 102zM973 183h133q-51 -93 -142 -145t-187 -52q-100 0 -178 42q-78 -42 -176 -42q-161 0 -273 113.5t-112 270.5q0 162 113.5 273t271.5 111q88 0 175 -41q80 41 173 41q102 0 195 -51.5t144 -151.5h-129q-87 104 -208 104q-39 0 -78 -11q113 -113 113 -276
q0 -157 -114 -271q36 -12 77 -12q119 0 202 98z" />
    <glyph glyph-name="O_O" unicode="&#xe170;" horiz-adv-x="1198" 
d="M599 28q-79 -42 -176 -42q-161 0 -273 113.5t-112 270.5q0 162 114.5 273t270.5 111q91 0 176 -41q87 41 176 41q161 0 273 -112.5t112 -266.5q0 -167 -113.5 -278t-271.5 -111q-98 0 -176 42zM693 96q37 -11 82 -11q123 0 200 86t77 196q0 121 -79.5 204.5t-198.5 83.5
q-41 0 -80 -11q114 -116 114 -276t-115 -272zM599 592q-47 -41 -74 -101t-27 -121q0 -62 27 -123t74 -100q47 39 74 99.5t27 120.5q0 63 -26.5 123t-74.5 102zM505 96q-55 55 -85 126.5t-30 147.5q0 160 114 274q-36 11 -82 11q-118 0 -197 -85t-79 -201q0 -112 77 -198
t200 -86q44 0 82 11z" />
    <glyph glyph-name="P_P" unicode="&#xe172;" horiz-adv-x="693" 
d="M331 0h-108v275h-40v-275h-108v740h192q188 0 253 -152q77 -29 115.5 -83.5t38.5 -124.5q0 -110 -68.5 -170.5t-195.5 -60.5h-79v-149zM223 374v227h177q-40 40 -117 40h-100v-267h40zM431 502h-100v-122q89 24 100 122zM331 248h84q154 0 154 128q0 48 -35 83
q-15 -75 -68 -122t-135 -59v-30z" />
    <glyph glyph-name="P_R" unicode="&#xe173;" horiz-adv-x="706" 
d="M638 0h-128l-177 239h-2v-239h-108v275h-40v-275h-108v740h193q89 0 154.5 -38t97.5 -114q76 -29 115 -84t39 -124q0 -84 -47 -138.5t-128 -67.5zM223 374v227h177q-40 40 -117 40h-100v-267h40zM431 502h-100v-122q89 24 100 122zM331 247h82q75 0 115.5 33t40.5 96
q0 48 -35 83q-15 -75 -68 -122t-135 -59v-31z" />
    <glyph glyph-name="R_A" unicode="&#xe174;" horiz-adv-x="1012" 
d="M947 0h-107v218h-252l-89 -131l65 -87h-257l60 87l-182 256h-2v-343h-108v740h235q122 0 190.5 -63.5t68.5 -173.5q0 -106 -60 -164t-152 -63l73 -97l385 561h132v-740zM183 358h78q97 0 148.5 37.5t51.5 106.5q0 61 -44 100t-116 39h-118v-283zM840 317v283h-2
l-182 -283h184z" />
    <glyph glyph-name="S_S" unicode="&#xe185;" horiz-adv-x="779" 
d="M739 559h-108q-2 43 -31.5 69.5t-69.5 26.5q-44 0 -73.5 -29.5t-29.5 -70.5q0 -80 108 -107q111 -28 164.5 -86t53.5 -154q0 -98 -64 -160t-162 -62q-78 0 -139 44q-59 -44 -146 -44q-97 0 -160.5 64t-63.5 161h108q5 -60 37 -93t84 -33q51 0 84.5 33.5t33.5 83.5
q0 52 -27 83q-15 18 -40 30.5t-78 28.5q-40 13 -69 27.5t-56 38.5t-41 60.5t-14 84.5q0 85 59.5 142t147.5 57q86 0 143 -49q55 49 137 49q88 0 148 -54t64 -141zM375 402v2q-56 58 -56 145q0 24 11 68q-32 38 -84 38q-38 0 -68 -27.5t-30 -65.5q0 -44 24.5 -70.5
t80.5 -40.5q74 -18 122 -49zM413 375l-1 -1q28 -25 44.5 -70.5t16.5 -83.5q0 -71 -21 -110q25 -25 76 -25q54 0 85.5 36t31.5 84q0 101 -121 130q-56 13 -111 40z" />
    <glyph glyph-name="S_T" unicode="&#xe186;" horiz-adv-x="799" 
d="M649 0h-108v641h-102q19 -44 19 -93h-108q0 50 -29 78.5t-75 28.5q-42 0 -70.5 -31t-28.5 -70q0 -19 3 -32t14.5 -29.5t38 -30.5t67.5 -25q115 -31 164 -86t49 -143q0 -97 -63 -159.5t-164 -62.5q-104 0 -171 62t-67 171h108q1 -61 37.5 -97.5t98.5 -36.5q49 0 81 35
t32 79q0 93 -106 126l-53 16.5t-46.5 17.5t-44 22t-34.5 27t-29 36t-16 45t-7 58q0 87 58.5 147t148.5 60q91 0 153 -57v43h392v-99h-142v-641z" />
    <glyph glyph-name="S_T.alt01" unicode="&#xe18e;" horiz-adv-x="736" 
d="M585 0h-108v172h-1q-21 -89 -80.5 -137.5t-147.5 -48.5q-101 0 -165.5 65t-64.5 168h108q1 -61 35 -97.5t93 -36.5q53 0 87 36t34 89q0 94 -131 123q-200 42 -200 207q0 86 61.5 143t150.5 57h60v-99h-57q-47 0 -77 -27.5t-30 -69.5q0 -41 23.5 -68.5t87.5 -39.5
q103 -20 151 -62t62 -114h1v381h-141v99h392v-99h-143v-641z" />
    <glyph glyph-name="T_H" unicode="&#xe196;" horiz-adv-x="895" 
d="M269 0h-108v641h-153v99h261v-740zM820 0h-108v322h-305v-322h-108v740h265v-99h-157v-220h305v319h108v-740z" />
    <glyph glyph-name="T_T" unicode="&#xe198;" horiz-adv-x="795" 
d="M645 0h-108v641h-280v-641h-108v641h-142v99h780v-99h-142v-641z" />
    <glyph glyph-name="T_T.alt01" unicode="&#xe199;" horiz-adv-x="572" 
d="M273 0h-108v641h-157v99h265v-740zM411 0h-108v740h261v-99h-153v-641z" />
    <glyph glyph-name="T_U" unicode="&#xe19a;" horiz-adv-x="869" 
d="M269 0h-108v641h-153v99h261v-740zM688 238v502h108v-506q0 -115 -70.5 -181.5t-177.5 -66.5t-177.5 66.5t-70.5 179.5v508h264v-99h-156v-401q0 -72 39 -113.5t101 -41.5t101 41t39 112z" />
    <glyph glyph-name="T_h" unicode="&#xe1a5;" horiz-adv-x="955" 
d="M891 0h-104v301q0 173 -138 173q-68 0 -107 -46.5t-39 -127.5v-300h-104v641h-142v-641h-108v641h-142v99h496v-245h2q50 74 155 74q102 0 166.5 -62.5t64.5 -173.5v-333z" />
    <glyph glyph-name="U_T" unicode="&#xe1a9;" horiz-adv-x="869" 
d="M462 244v397h-157v99h265v-506q0 -113 -70.5 -180.5t-178.5 -67.5q-107 0 -177.5 67t-70.5 180v507h108v-498q0 -74 39 -115.5t101 -41.5t101.5 41.5t39.5 117.5zM708 0h-108v740h261v-99h-153v-641z" />
    <glyph glyph-name="c_t" unicode="&#xe1b8;" horiz-adv-x="651" 
d="M557 0h-104v459h-75v95h75v186h104v-186h91v-95h-91v-459zM423 103v-100q-26 -17 -112 -17q-121 0 -197 82t-76 199q0 120 77 203.5t199 83.5h34v-95h-23q-86 0 -134.5 -52.5t-48.5 -138.5q0 -79 50 -133t136 -54q59 0 95 22z" />
    <glyph glyph-name="o_o" unicode="&#xe1c1;" horiz-adv-x="948" 
d="M370 83q-78 86 -78 198q0 109 76 191q-24 2 -32 2q-81 0 -137.5 -58t-56.5 -138t57 -138.5t138 -58.5q15 0 33 2zM464 427q-68 -60 -68 -149q0 -90 68 -149q68 59 68 150q0 89 -68 148zM464 13q-62 -27 -127 -27q-128 0 -213.5 88.5t-85.5 206.5q0 115 86 201.5t210 86.5
q67 0 130 -27q62 27 131 27q120 0 207.5 -85t87.5 -199q0 -124 -86.5 -211.5t-212.5 -87.5q-68 0 -127 27zM559 84q24 -3 32 -3q82 0 138.5 59t56.5 139q0 76 -55 135.5t-136 59.5q-12 0 -34 -2q75 -83 75 -193t-77 -195z" />
    <glyph glyph-name="s_s" unicode="&#xe1c3;" horiz-adv-x="662" 
d="M627 407h-104q-9 67 -71 67q-29 0 -47 -16.5t-18 -42.5t17.5 -41.5t59.5 -27.5q176 -48 176 -183q0 -78 -51.5 -127.5t-133.5 -49.5q-65 0 -119 37q-51 -37 -119 -37q-35 0 -68 11t-62.5 33.5t-47.5 61.5t-19 90h104q3 -48 27.5 -74.5t66.5 -26.5q36 0 58 20.5t22 55.5
q0 30 -22.5 49t-79.5 38q-83 27 -117 66t-34 99q0 66 50.5 113t123.5 47q67 0 118 -43q49 43 120 43q66 0 117 -42.5t53 -119.5zM317 309q-34 41 -34 100q0 27 -19.5 46t-50.5 19q-27 0 -45.5 -16.5t-18.5 -42.5q0 -44 56 -62q86 -28 112 -44zM393 104q23 -23 63 -23
q36 0 58 21t22 55q0 29 -20.5 47.5t-75.5 37.5q-53 17 -80 33q42 -47 42 -112q0 -32 -9 -59z" />
    <glyph glyph-name="s_t" unicode="&#xe1c4;" horiz-adv-x="630" 
d="M536 0h-104v459h-51q8 -20 8 -52h-104q-8 67 -71 67q-29 0 -47 -17t-18 -42q0 -17 7 -29.5t25 -21.5t30.5 -13.5t41.5 -13.5q149 -43 149 -174q0 -79 -51.5 -128t-134.5 -49q-82 0 -139 53t-57 143h104q8 -101 94 -101q36 0 58 21t22 55q0 29 -22.5 49t-71.5 35
q-93 28 -126 69.5t-33 98.5q0 69 52 114.5t122 45.5q43 0 80.5 -18.5t57.5 -46.5v50h75v186h104v-186h91v-95h-91v-459z" />
    <glyph glyph-name="s_t" unicode="&#xfb06;" horiz-adv-x="630" 
d="M536 0h-104v459h-51q8 -20 8 -52h-104q-8 67 -71 67q-29 0 -47 -17t-18 -42q0 -17 7 -29.5t25 -21.5t30.5 -13.5t41.5 -13.5q149 -43 149 -174q0 -79 -51.5 -128t-134.5 -49q-82 0 -139 53t-57 143h104q8 -101 94 -101q36 0 58 21t22 55q0 29 -22.5 49t-71.5 35
q-93 28 -126 69.5t-33 98.5q0 69 52 114.5t122 45.5q43 0 80.5 -18.5t57.5 -46.5v50h75v186h104v-186h91v-95h-91v-459z" />
    <glyph glyph-name="s_t.alt01" unicode="&#xe1cc;" horiz-adv-x="599" 
d="M505 0h-104v133h-2q-8 -66 -58 -106.5t-125 -40.5q-78 0 -137 51t-59 145h104q3 -48 27.5 -74.5t66.5 -26.5q36 0 58 20.5t22 55.5q0 30 -23 50t-77 34q-81 21 -117 59.5t-36 99.5q0 67 47 110.5t123 43.5h91v-95h-92q-28 0 -46.5 -14.5t-18.5 -38.5q0 -25 19 -39.5
t72 -26.5q67 -15 108.5 -53t50.5 -94h2v266h-75v95h75v186h104v-186h91v-95h-91v-459z" />
    <glyph glyph-name="t_t" unicode="&#xe1d4;" horiz-adv-x="522" 
d="M428 0h-104v459h-141v-459h-104v459h-75v95h75v186h104v-186h141v186h104v-186h91v-95h-91v-459z" />
    <glyph glyph-name="t_t.alt01" unicode="&#xe1d6;" horiz-adv-x="405" 
d="M183 0h-104v459h-75v95h75v186h104v-740zM327 0h-104v740h104v-186h75v-95h-75v-459z" />
    <glyph glyph-name="zero.numerator" unicode="&#xe1da;" horiz-adv-x="369" 
d="M345 597v-156q0 -71 -43 -113t-118 -42q-72 0 -116 43.5t-44 115.5v147q0 69 47.5 113.5t114.5 44.5q68 0 113.5 -43.5t45.5 -109.5zM261 443v156q0 33 -20.5 54t-55.5 21t-56 -21t-21 -54v-157q0 -38 20.5 -59t56.5 -21q35 0 55.5 21.5t20.5 59.5z" />
    <glyph glyph-name="one.numerator" unicode="&#xe1db;" horiz-adv-x="246" 
d="M175 296h-80v368h-62v76h142v-444z" />
    <glyph glyph-name="two.numerator" unicode="&#xe1dc;" horiz-adv-x="351" 
d="M318 296h-290v62l170 172q39 39 39 74q0 30 -18 50t-46 20q-30 0 -49 -20t-19 -53v-17h-80v17q0 63 43 106t102 43q60 0 103.5 -42.5t43.5 -103.5q0 -62 -59 -121l-110 -111h170v-76z" />
    <glyph glyph-name="three.numerator" unicode="&#xe1dd;" horiz-adv-x="335" 
d="M162 499h-24v76h21q57 0 57 52q0 22 -13 34.5t-35 12.5q-21 0 -33.5 -14t-13.5 -36h-80q1 55 38 90.5t89 35.5q53 0 90.5 -38t37.5 -91q0 -46 -40 -83q60 -34 60 -108q0 -60 -44.5 -102t-107.5 -42q-60 0 -104 41.5t-44 104.5h80q7 -70 72 -70q30 0 49 19t19 49
q0 31 -20.5 50t-53.5 19z" />
    <glyph glyph-name="four.numerator" unicode="&#xe1de;" horiz-adv-x="362" 
d="M294 296h-70v69h-206v69l208 306h68v-307h48v-68h-48v-69zM224 433v190h-2l-121 -190h123z" />
    <glyph glyph-name="five.numerator" unicode="&#xe1df;" horiz-adv-x="352" 
d="M291 664h-153l-14 -78q23 18 64 18q65 0 105 -43t40 -111q0 -69 -44.5 -116.5t-113.5 -47.5q-62 0 -107 41.5t-52 108.5h80q13 -74 80 -74q35 0 56 23.5t21 59.5q0 37 -21 60.5t-56 23.5q-48 0 -74 -35l-65 15l36 231h218v-76z" />
    <glyph glyph-name="six.numerator" unicode="&#xe1e0;" horiz-adv-x="353" 
d="M169 597l1 -1q9 5 29 5q57 0 98.5 -44.5t41.5 -105.5q0 -71 -45 -118t-114 -47q-65 0 -113 46t-48 110q0 59 30 105l126 193h97zM180 362q34 0 56.5 23.5t22.5 58.5q0 36 -23 60.5t-58 24.5q-34 0 -56.5 -23.5t-22.5 -57.5q0 -37 23 -61.5t58 -24.5z" />
    <glyph glyph-name="seven.numerator" unicode="&#xe1e1;" horiz-adv-x="300" 
d="M120 296h-89l161 368h-178v76h263v-76z" />
    <glyph glyph-name="eight.numerator" unicode="&#xe1e2;" horiz-adv-x="334" 
d="M256 540q59 -38 59 -108q0 -60 -43.5 -103t-104.5 -43t-104.5 42t-43.5 102q0 69 56 110q-36 32 -36 82q0 52 37.5 90t91.5 38q52 0 89.5 -37.5t37.5 -89.5q0 -49 -39 -83zM167 573q22 0 35.5 15.5t13.5 39.5q0 20 -13.5 33.5t-35.5 13.5q-21 0 -35 -14.5t-14 -35.5
q0 -22 14 -37t35 -15zM236 428q0 33 -18.5 53t-50.5 20q-30 0 -49.5 -20.5t-19.5 -52.5q0 -28 19 -47.5t49 -19.5t50 19.5t20 47.5z" />
    <glyph glyph-name="nine.numerator" unicode="&#xe1e3;" horiz-adv-x="353" 
d="M177 507q34 0 56.5 23t22.5 58q0 36 -23 61t-59 25q-33 0 -55.5 -24t-22.5 -58q0 -37 22.5 -61t58.5 -24zM180 296h-97l106 144l-1 1q-12 -6 -28 -6q-62 0 -103 43.5t-41 106.5q0 70 45.5 117.5t113.5 47.5q66 0 113.5 -46t47.5 -110q0 -55 -42 -121z" />
    <glyph glyph-name="zero.denominator" unicode="&#xe1e4;" horiz-adv-x="369" 
d="M345 301v-156q0 -71 -43 -113t-118 -42q-72 0 -116 43.5t-44 115.5v147q0 69 47.5 113.5t114.5 44.5q68 0 113.5 -43.5t45.5 -109.5zM261 147v156q0 33 -20.5 54t-55.5 21t-56 -21t-21 -54v-157q0 -38 20.5 -59t56.5 -21q35 0 55.5 21.5t20.5 59.5z" />
    <glyph glyph-name="one.denominator" unicode="&#xe1e5;" horiz-adv-x="246" 
d="M175 0h-80v368h-62v76h142v-444z" />
    <glyph glyph-name="two.denominator" unicode="&#xe1e6;" horiz-adv-x="351" 
d="M318 0h-290v62l170 172q39 39 39 74q0 30 -18 50t-46 20q-30 0 -49 -20t-19 -53v-17h-80v17q0 63 43 106t102 43q60 0 103.5 -42.5t43.5 -103.5q0 -62 -59 -121l-110 -111h170v-76z" />
    <glyph glyph-name="three.denominator" unicode="&#xe1e7;" horiz-adv-x="335" 
d="M162 203h-24v76h21q57 0 57 52q0 22 -13 34.5t-35 12.5q-21 0 -33.5 -14t-13.5 -36h-80q1 55 38 90.5t89 35.5q53 0 90.5 -38t37.5 -91q0 -46 -40 -83q60 -34 60 -108q0 -60 -44.5 -102t-107.5 -42q-60 0 -104 41.5t-44 104.5h80q7 -70 72 -70q30 0 49 19t19 49
q0 31 -20.5 50t-53.5 19z" />
    <glyph glyph-name="four.denominator" unicode="&#xe1e8;" horiz-adv-x="362" 
d="M294 0h-70v69h-206v69l208 306h68v-307h48v-68h-48v-69zM224 137v190h-2l-121 -190h123z" />
    <glyph glyph-name="five.denominator" unicode="&#xe1e9;" horiz-adv-x="352" 
d="M293 368h-153l-14 -78q22 18 64 18q65 0 105 -43t40 -111q0 -69 -44.5 -116.5t-113.5 -47.5q-62 0 -107 41.5t-52 108.5h80q13 -74 80 -74q35 0 56 23.5t21 59.5q0 37 -21 60.5t-56 23.5q-48 0 -74 -35l-65 15l36 231h218v-76z" />
    <glyph glyph-name="six.denominator" unicode="&#xe1ea;" horiz-adv-x="353" 
d="M169 301l1 -1q9 5 29 5q57 0 98.5 -44.5t41.5 -105.5q0 -71 -45 -118t-114 -47q-65 0 -113 46t-48 110q0 59 30 105l126 193h97zM180 66q34 0 56.5 23.5t22.5 58.5q0 36 -23 60.5t-58 24.5q-34 0 -56.5 -23.5t-22.5 -57.5q0 -37 23 -61.5t58 -24.5z" />
    <glyph glyph-name="seven.denominator" unicode="&#xe1eb;" horiz-adv-x="312" 
d="M126 0h-89l161 368h-178v76h263v-76z" />
    <glyph glyph-name="eight.denominator" unicode="&#xe1ec;" horiz-adv-x="334" 
d="M256 244q59 -38 59 -108q0 -60 -43.5 -103t-104.5 -43t-104.5 42t-43.5 102q0 69 56 110q-36 32 -36 82q0 52 37.5 90t91.5 38q52 0 89.5 -37.5t37.5 -89.5q0 -49 -39 -83zM167 277q22 0 35.5 15.5t13.5 39.5q0 20 -13.5 33.5t-35.5 13.5q-21 0 -35 -14.5t-14 -35.5
q0 -22 14 -37t35 -15zM236 132q0 33 -18.5 53t-50.5 20q-30 0 -49.5 -20.5t-19.5 -52.5q0 -28 19 -47.5t49 -19.5t50 19.5t20 47.5z" />
    <glyph glyph-name="nine.denominator" unicode="&#xe1ed;" horiz-adv-x="353" 
d="M177 211q34 0 56.5 23t22.5 58q0 36 -23 61t-59 25q-33 0 -55.5 -24t-22.5 -58q0 -37 22.5 -61t58.5 -24zM180 0h-97l106 144l-1 1q-12 -6 -28 -6q-62 0 -103 43.5t-41 106.5q0 70 45.5 117.5t113.5 47.5q66 0 113.5 -46t47.5 -110q0 -55 -42 -121z" />
    <glyph glyph-name="zero.fitted" unicode="&#xe1ff;" horiz-adv-x="569" 
d="M524 515v-292q0 -58 -22.5 -105t-58.5 -75t-77.5 -42.5t-82.5 -14.5q-92 0 -165 65.5t-73 181.5v275q0 112 72 179.5t170 67.5q100 0 168.5 -70.5t68.5 -169.5zM420 218v297q0 60 -34.5 102.5t-100.5 42.5q-63 0 -99.5 -41.5t-36.5 -103.5v-277q0 -68 35.5 -112.5
t100.5 -44.5q53 0 94 38t41 99z" />
    <glyph glyph-name="one.fitted" unicode="&#xe200;" horiz-adv-x="338" 
d="M233 0h-104v645h-109v95h213v-740z" />
    <glyph glyph-name="two.fitted" unicode="&#xe201;" horiz-adv-x="543" 
d="M498 0h-463v87l296 301q62 63 62 130q0 58 -36 99.5t-91 41.5q-59 0 -95 -43.5t-36 -115.5v-14h-104v13q0 119 69.5 187t163.5 68q98 0 165.5 -69.5t67.5 -169.5q0 -56 -22 -102t-82 -107l-205 -211h310v-95z" />
    <glyph glyph-name="three.fitted" unicode="&#xe202;" 
d="M255 350h-34v104h34q47 0 78.5 26.5t31.5 76.5q0 42 -28.5 72t-70.5 30t-68 -27.5t-31 -76.5h-104q0 66 41 120q27 35 71.5 57t94.5 22q87 0 143 -57.5t56 -147.5q0 -47 -15.5 -78.5t-52.5 -65.5q100 -64 100 -184q0 -103 -67 -169t-173 -66q-98 0 -168 67t-71 165h104
q4 -63 42 -100t96 -37q55 0 94 40.5t39 95.5q0 54 -37.5 93.5t-104.5 39.5z" />
    <glyph glyph-name="four.fitted" unicode="&#xe203;" horiz-adv-x="561" 
d="M459 0h-104v116h-338v101l338 523h104v-529h78v-95h-78v-116zM355 211v356h-2l-216 -356h218z" />
    <glyph glyph-name="five.fitted" unicode="&#xe204;" 
d="M459 645h-252l-28 -164q42 30 103 30q108 0 178 -74t70 -181q0 -114 -71 -192t-182 -78q-102 0 -170.5 64.5t-81.5 173.5h104q15 -70 54 -106.5t95 -36.5q60 0 104 48t44 114q0 71 -40.5 122t-103.5 51q-86 0 -133 -77l-90 21l62 380h338v-95z" />
    <glyph glyph-name="six.fitted" unicode="&#xe205;" 
d="M413 740l-157 -243q21 5 44 5q101 0 169.5 -72.5t68.5 -177.5q0 -110 -73 -188t-182 -78q-116 0 -186.5 80t-70.5 176q0 86 58 176l206 322h123zM283 81q63 0 107 48t44 112q0 67 -41.5 116.5t-107.5 49.5q-64 0 -109.5 -47t-45.5 -112q0 -69 43 -118t110 -49z" />
    <glyph glyph-name="seven.fitted" unicode="&#xe206;" horiz-adv-x="457" 
d="M163 0h-116l279 645h-321v95h429v-95z" />
    <glyph glyph-name="eight.fitted" unicode="&#xe207;" 
d="M277 456q43 0 70 29.5t27 75.5q0 40 -28 69t-69 29q-39 0 -67.5 -30.5t-28.5 -71.5t27.5 -71t68.5 -30zM276 81q53 0 92 39t39 92q0 56 -38 97t-93 41q-52 0 -90.5 -41t-38.5 -96q0 -54 38.5 -93t90.5 -39zM412 408q99 -67 99 -187q0 -95 -67.5 -165t-164.5 -70
q-99 0 -167.5 67.5t-68.5 159.5q0 64 23 110t74 85q-35 34 -49 66.5t-14 75.5q0 83 59 143.5t143 60.5q81 0 140 -60t59 -141q0 -51 -15 -82.5t-51 -62.5z" />
    <glyph glyph-name="nine.fitted" unicode="&#xe208;" horiz-adv-x="554" 
d="M265 0h-123l157 243q-28 -4 -44 -4q-101 0 -169.5 73.5t-68.5 176.5q0 111 74 188t180 77q115 0 186 -79t71 -173q0 -87 -63 -186zM271 334q62 0 107.5 47.5t45.5 110.5q0 69 -43.5 118t-109.5 49q-62 0 -106 -47.5t-44 -112.5q0 -66 43.5 -115.5t106.5 -49.5z" />
    <glyph glyph-name="parenleft.cap" unicode="&#xe209;" horiz-adv-x="407" 
d="M357 -7v-130q-131 67 -216.5 206.5t-85.5 303.5q0 150 81 290t215 212v-129q-103 -91 -145.5 -175.5t-42.5 -196.5q0 -119 46 -209.5t148 -171.5z" />
    <glyph glyph-name="parenright.cap" unicode="&#xe20a;" horiz-adv-x="407" 
d="M56 -137v129q103 91 145.5 175.5t42.5 196.5q0 119 -46 209.5t-148 171.5v130q131 -67 216.5 -206.5t85.5 -303.5q0 -150 -81 -290t-215 -212z" />
    <glyph glyph-name="bracketleft.cap" unicode="&#xe20b;" horiz-adv-x="407" 
d="M329 -14v-123q-91 37 -147.5 112t-56.5 156v460q0 93 52.5 169t151.5 115v-121q-97 -61 -97 -174v-414q0 -65 23.5 -107.5t73.5 -72.5z" />
    <glyph glyph-name="bracketright.cap" unicode="&#xe20c;" horiz-adv-x="407" 
d="M78 -137v123q52 32 74.5 73.5t22.5 106.5v414q0 113 -97 174v121q99 -39 151.5 -115t52.5 -169v-460q0 -81 -56.5 -156t-147.5 -112z" />
    <glyph glyph-name="braceleft.cap" unicode="&#xe20d;" horiz-adv-x="333" 
d="M308 -90h-66q-57 0 -96.5 38t-39.5 97v204q0 36 -25.5 62.5t-66.5 27.5v86q40 1 66 25.5t26 55.5v206q0 59 39.5 97.5t95.5 38.5h67v-79h-45q-53 0 -53 -70v-206q0 -43 -26.5 -73t-72.5 -36v-3q99 -13 99 -115v-207q0 -70 53 -70h45v-79z" />
    <glyph glyph-name="braceright.cap" unicode="&#xe20e;" horiz-adv-x="333" 
d="M91 -90h-66v79h45q53 0 53 70v201q0 48 25.5 78t73.5 36v3q-48 6 -73.5 37t-25.5 82v203q0 70 -53 70h-45v79h67q57 0 96 -38t39 -98v-202q0 -38 25.5 -64t66.5 -27v-86q-41 -1 -66.5 -25t-25.5 -59v-204q0 -59 -39 -97t-97 -38z" />
    <glyph glyph-name="guilsinglleft.cap" unicode="&#xe20f;" horiz-adv-x="205" 
d="M171 185l-137 134v103l137 136v-113l-75 -74l75 -74v-112z" />
    <glyph glyph-name="guilsinglright.cap" unicode="&#xe210;" horiz-adv-x="205" 
d="M171 318l-137 -134v112l75 74l-75 74v113l137 -136v-103z" />
    <glyph glyph-name="guillemotleft.cap" unicode="&#xe211;" horiz-adv-x="370" 
d="M170 185l-137 134v103l137 136v-113l-75 -74l75 -74v-112zM337 185l-137 134v103l137 136v-113l-75 -74l75 -74v-112z" />
    <glyph glyph-name="guillemotright.cap" unicode="&#xe212;" horiz-adv-x="370" 
d="M170 319l-137 -134v112l75 74l-75 74v113l137 -136v-103zM337 319l-137 -134v112l75 74l-75 74v113l137 -136v-103z" />
    <glyph glyph-name="hyphen.cap" unicode="&#xe213;" horiz-adv-x="280" 
d="M280 318h-280v104h280v-104z" />
    <glyph glyph-name="endash.cap" unicode="&#xe214;" horiz-adv-x="500" 
d="M465 318h-430v104h430v-104z" />
    <glyph glyph-name="emdash.cap" unicode="&#xe215;" horiz-adv-x="1000" 
d="M965 318h-930v104h930v-104z" />
    <glyph glyph-name="exclamdown.cap" unicode="&#xe216;" horiz-adv-x="277" 
d="M190 618h-104v122h104v-122zM190 0h-104v555h104v-555z" />
    <glyph glyph-name="questiondown.cap" unicode="&#xe217;" horiz-adv-x="518" 
d="M319 618h-104v122h104v-122zM382 211h104q-2 -101 -69 -163t-153 -62q-94 0 -159 66t-65 158q0 53 17.5 88.5t65.5 80.5q48 44 66 77t26 94h104q-2 -67 -29 -122t-103 -128q-43 -42 -43 -86q0 -51 34.5 -87t83.5 -36q46 0 80.5 32t39.5 88z" />
    <glyph glyph-name="periodcentered.cap" unicode="&#xe218;" horiz-adv-x="277" 
d="M184 316h-91v108h91v-108z" />
    <glyph glyph-name="circumflexalt" horiz-adv-x="716" 
d="M780 791h-108l-99 74l-98 -74h-109l172 144h73z" />
    <glyph glyph-name="dieresisalt" horiz-adv-x="716" 
d="M517 793h-101v135h101v-135zM720 793h-101v135h101v-135z" />
    <glyph glyph-name="tildealt" horiz-adv-x="716" 
d="M724 920l39 -69q-48 -39 -105 -39q-26 0 -84.5 15.5t-82.5 15.5q-43 0 -76 -27l-39 71q45 37 103 37q27 0 84.5 -15t83.5 -15q48 0 77 26z" />
    <glyph glyph-name="caronalt" horiz-adv-x="499" 
d="M300 793h-100l-140 142h114l74 -76l77 76h114z" />
    </font>
</defs>
</svg>
